<?xml version="1.0" standalone="no"?>
<!DOCTYPE svg PUBLIC "-//W3C//DTD SVG 1.1//EN" "http://www.w3.org/Graphics/SVG/1.1/DTD/svg11.dtd" >
<svg xmlns="http://www.w3.org/2000/svg" xmlns:xlink="http://www.w3.org/1999/xlink" version="1.1">
<metadata></metadata>
<defs>
<font id="ec_square_sans_cond_promedium" horiz-adv-x="1036" >
<font-face units-per-em="2048" ascent="1536" descent="-512" />
<missing-glyph horiz-adv-x="495" />
<glyph unicode="&#xfb01;" horiz-adv-x="960" d="M39 862v99q0 23 7 33t36 10h74v118q0 164 82 255t270 91q57 0 138 -12t138 -39q25 -12 30 -26.5t1 -30.5l-16 -84q-4 -23 -15.5 -27t-40.5 0q-55 6 -114.5 11.5t-93.5 5.5q-74 0 -115 -37t-41 -129v-96h448q29 0 37 -10.5t8 -30.5v-924q0 -18 -6 -28.5t-35 -10.5h-135 q-29 0 -38 9t-9 30v782h-270v-782q0 -18 -7 -28.5t-36 -10.5h-135q-27 0 -36 9t-9 30v782h-74q-29 0 -36 9.5t-7 31.5z" />
<glyph unicode="&#xfb02;" horiz-adv-x="958" d="M27 862v99q0 23 6 33t35 10h73v118q0 166 83.5 255t269.5 89q25 0 56.5 -2t65 -5t67.5 -10t60 -15q14 2 48 12t47 10q41 4 41 -37v-1378q0 -18 -9.5 -29.5t-33.5 -11.5h-138q-45 0 -45 41v1216q-31 4 -70.5 6.5t-62.5 2.5q-74 0 -113.5 -38t-39.5 -130v-94h153 q27 0 34 -10.5t7 -32.5v-99q0 -23 -7 -32t-34 -9h-153v-780q0 -18 -9.5 -29.5t-33.5 -11.5h-136q-47 0 -47 41v780h-73q-29 0 -35 9.5t-6 31.5z" />
<glyph unicode="&#xfb03;" horiz-adv-x="1454" d="M41 862v99q0 23 8 33t35 10h72v112q0 166 83 255t265 89q47 0 114.5 -8t126.5 -31q41 39 103.5 58.5t155.5 19.5q29 0 64.5 -3t73.5 -9t73.5 -15.5t62.5 -21.5q25 -12 30 -27.5t1 -31.5l-17 -84q-4 -23 -15 -27t-40 0q-55 6 -113.5 12t-93.5 6q-76 0 -117 -37.5 t-41 -130.5v-126h451q29 0 36 -11.5t7 -29.5v-924q0 -18 -7 -28.5t-36 -10.5h-135q-27 0 -36 8t-9 31v782h-271v-782q0 -18 -7 -28.5t-36 -10.5h-133q-47 0 -47 39v782h-270v-782q0 -18 -7 -28.5t-36 -10.5h-133q-29 0 -38 8t-9 31v782h-72q-27 0 -35 9.5t-8 31.5zM383 1004 h270v135q0 29 4.5 57.5t8.5 50.5q-86 12 -142 13q-70 0 -104.5 -37t-36.5 -121v-98z" />
<glyph unicode="&#xfb04;" horiz-adv-x="1470" d="M41 862v99q0 23 8 33t35 10h72v112q0 166 83 255t265 89q43 0 110.5 -9t126.5 -34q86 76 260 76q25 0 55.5 -2t64.5 -6t67 -10.5t59 -16.5l84 25q18 4 34.5 -4.5t16.5 -30.5v-1407q0 -18 -9 -29.5t-38 -11.5h-127q-49 0 -49 41v1243q-37 4 -70.5 6t-56.5 2 q-76 0 -118 -36.5t-42 -131.5v-120h152q29 0 36 -10.5t7 -32.5v-99q0 -23 -7 -32t-36 -9h-154v-780q0 -18 -9 -29.5t-38 -11.5h-127q-49 0 -49 41v780h-268v-780q0 -18 -9.5 -29.5t-37.5 -11.5h-127q-49 0 -49 41v780h-72q-27 0 -35 9.5t-8 31.5zM379 1004h268v135 q0 27 4 56.5t8 51.5q-90 12 -139 13q-141 0 -141 -168v-88z" />
<glyph horiz-adv-x="0" />
<glyph unicode="&#xd;" horiz-adv-x="495" />
<glyph horiz-adv-x="0" />
<glyph horiz-adv-x="0" />
<glyph unicode=" "  horiz-adv-x="495" />
<glyph unicode="&#x09;" horiz-adv-x="495" />
<glyph unicode="&#xa0;" horiz-adv-x="495" />
<glyph unicode="!" horiz-adv-x="454" d="M106 100q0 49 24 84t95 35q76 0 98.5 -33t22.5 -86q0 -49 -22.5 -86t-98.5 -37q-41 0 -64.5 10.5t-35.5 28t-15.5 40t-3.5 44.5zM123 1319q-2 23 7 31t32 8h137q37 0 37 -39l-25 -918q0 -35 -35 -34h-94q-23 0 -30 7t-7 27z" />
<glyph unicode="&#x22;" horiz-adv-x="583" d="M88 1329q0 29 29 29h125q16 0 21 -10.5t5 -18.5l-20 -383q0 -23 -27 -22h-90q-23 0 -22 22zM315 1329q-4 29 29 29h125q16 0 21.5 -10.5t5.5 -18.5l-21 -383q-4 -23 -26 -22h-91q-23 0 -22 22z" />
<glyph unicode="#" d="M29 485l2 90q0 18 11 24.5t30 6.5h198l47 201h-176q-16 0 -26.5 4t-8.5 25l3 90q0 18 10 23t31 5h202l88 369q4 18 9.5 25.5t25.5 7.5h109q31 0 24 -35l-88 -367h152l88 369q4 18 10 25.5t23 7.5h108q35 0 27 -33l-88 -369h178q33 0 33 -32l-2 -86q0 -29 -35 -29h-209 l-49 -201h192q18 0 24.5 -7t6.5 -24v-90q-4 -16 -11 -22t-26 -6h-219l-102 -426q-4 -16 -9.5 -23.5t-19.5 -7.5h-109q-37 0 -30 35l102 422h-152l-100 -426q-8 -31 -31 -31h-108q-35 0 -29 35l101 422h-177q-31 0 -30 28zM438 606h150l49 201h-152z" />
<glyph unicode="$" d="M87 96.5q-3 14.5 1 32.5l18 84q4 23 12.5 28t35.5 1q33 -6 71.5 -12.5t79.5 -12.5t82 -10t76 -6v397q-74 20 -139.5 48t-114.5 71t-77 105.5t-26 154.5q4 172 98.5 267t260.5 108v174q0 10 4 16t20 6h66q16 0 20.5 -6t4.5 -16v-176q66 -4 142.5 -18.5t133.5 -41.5 q29 -12 36 -26.5t3 -32.5l-23 -84q-4 -20 -13 -27.5t-32 -3.5q-55 8 -119.5 17.5t-127.5 13.5v-365q72 -18 137 -44.5t114.5 -71.5t78 -113t26.5 -172q-4 -96 -33 -166t-77 -115t-111.5 -69.5t-136.5 -30.5v-180q0 -10 -4.5 -16.5t-20.5 -6.5h-66q-16 0 -20 4t-4 17v180 q-39 2 -86 8t-93 15.5t-89 20.5t-76 26q-29 14 -32 28.5zM319 979q-4 -78 35 -113t111 -55v336q-72 -10 -108 -54t-38 -114zM578 203q74 10 108.5 52t36.5 110q2 92 -33 136t-112 68v-366z" />
<glyph unicode="%" horiz-adv-x="1593" d="M35 940q0 47 7 121t39 143.5t94.5 119.5t172.5 50q111 0 174.5 -40t96 -103.5t42 -140t9.5 -150.5q0 -61 -8.5 -141t-40 -150.5t-96 -120t-177.5 -49.5t-175 46t-93 115t-38 149.5t-7 150.5zM223 928q0 -61 4 -112.5t17.5 -89.5t38 -59.5t65.5 -21.5q43 0 69.5 21.5 t41 59.5t19.5 89t5 113q0 68 -4 120t-18.5 89t-41 56t-71.5 19q-41 0 -65.5 -22.5t-38 -61t-17.5 -91t-4 -109.5zM467 -14l487 1413q8 16 15.5 25.5t27.5 9.5h103q14 0 22 -7.5t2 -25.5l-489 -1421q-8 -27 -37 -27h-104q-16 0 -24.5 7t-2.5 26zM915 449q0 47 7.5 120.5 t39 143t94 120t173.5 50.5t174 -41t96 -103.5t42 -139.5t9 -150q0 -61 -8 -142.5t-40 -152t-96 -119.5t-177 -49t-175.5 46t-93 115.5t-38 150.5t-7.5 151zM1104 434q0 -59 4 -111.5t17.5 -90t38 -59t65.5 -21.5q43 0 69.5 21.5t41 59t19.5 89t5 112.5q0 68 -4 120t-18.5 89 t-41 56.5t-71.5 19.5q-41 0 -65.5 -22.5t-38 -61.5t-17.5 -91t-4 -110z" />
<glyph unicode="&#x26;" horiz-adv-x="1275" d="M53 362q0 135 74 249t203 204q-41 68 -61.5 138.5t-20.5 111.5q0 66 19.5 123t56 100t92 67.5t127.5 24.5q66 0 119 -22.5t91 -60t58 -90t20 -111.5q0 -106 -65.5 -192.5t-167.5 -151.5q57 -102 122.5 -194.5t141.5 -174.5q61 84 107.5 195.5t68.5 240.5q4 23 10.5 29 t38.5 6h82q35 0 43.5 -14.5t8.5 -42.5q0 -74 -21.5 -155t-54.5 -157.5t-72 -143.5t-76 -110q53 -53 113.5 -100t112.5 -82q18 -12 21 -23.5t-7 -27.5l-49 -88q-10 -20 -25.5 -24.5t-46.5 12.5q-29 14 -62.5 37.5t-69.5 51t-71.5 57.5t-64.5 58q-86 -63 -184.5 -94 t-200.5 -31q-86 0 -161 23t-130 69t-87 118.5t-32 174.5zM264 375q0 -115 58.5 -167t142.5 -52q55 0 119.5 21.5t130.5 68.5q-39 43 -80 95t-79 106.5t-71.5 105.5t-58.5 94q-76 -53 -119 -120.5t-43 -151.5zM453 1075q0 -72 53 -168q53 35 92 82.5t39 108.5 q0 51 -27.5 83.5t-68.5 32.5q-25 0 -41.5 -13t-26.5 -33.5t-15 -45t-5 -47.5z" />
<glyph unicode="'" horiz-adv-x="382" d="M100 1329q0 29 31 29h123q18 0 23.5 -10.5t5.5 -18.5l-23 -383q0 -23 -27 -22h-90q-20 0 -20 22z" />
<glyph unicode="(" horiz-adv-x="555" d="M88 631q0 131 21.5 248.5t57.5 218t80 184.5t89 152q14 25 27.5 26.5t33.5 -10.5l68 -47q18 -10 21 -20.5t-7 -30.5q-33 -59 -63.5 -139t-54 -173.5t-38 -196.5t-14.5 -212q0 -238 50.5 -432.5t119.5 -327.5q10 -23 7 -32t-21 -19l-68 -43q-20 -12 -33.5 -12.5 t-27.5 22.5q-45 68 -89 153t-80 190.5t-57.5 230t-21.5 270.5z" />
<glyph unicode=")" horiz-adv-x="559" d="M89 1382.5q3 10.5 22 20.5l69 47q18 12 31.5 10t30.5 -26q45 -68 89 -152t78.5 -184.5t56 -218t21.5 -248.5q0 -145 -21.5 -270t-56 -230.5t-79.5 -190.5t-90 -153q-14 -23 -27.5 -23t-34.5 13l-67 43q-18 10 -21.5 19t6.5 32q70 133 120 327.5t50 432.5q0 109 -14 212 t-38 196.5t-54.5 173t-63.5 139.5q-10 20 -7 30.5z" />
<glyph unicode="*" horiz-adv-x="684" d="M61 1171l39 60q10 16 19.5 15t25.5 -7l127 -65l7 151q2 18 10 25.5t35 7.5h45q27 0 35 -7.5t10 -27.5l8 -154l113 66q18 10 31.5 10t27.5 -22l29 -41q8 -12 9 -21.5t-11 -19.5l-132 -99l134 -98q20 -18 2 -45l-25 -41q-23 -35 -55 -16l-123 71l-6 -151q0 -18 -7.5 -25.5 t-35.5 -7.5h-54q-23 0 -29.5 5t-8.5 28l-9 151l-120 -69q-12 -8 -27.5 -6t-24.5 16l-32 53q-10 18 4 33l127 104l-125 89q-25 18 -13 38z" />
<glyph unicode="+" horiz-adv-x="1024" d="M127 610v107q0 33 35 33h256v290q0 35 35 35h129q31 0 30 -35v-290h250q37 0 37 -33v-107q0 -33 -37 -32h-250v-308q0 -35 -30 -34h-129q-35 0 -35 34v308h-256q-35 0 -35 32z" />
<glyph unicode="," horiz-adv-x="382" d="M41 -233.5q6 12.5 20 28.5q33 35 44.5 75t11.5 69q0 39 -13.5 73.5t-31.5 61.5q-10 20 -11.5 32.5t19.5 28.5l90 84q43 37 82 2q35 -33 51 -85t16 -89q0 -123 -54 -214t-122 -136q-10 -8 -25.5 -11t-29.5 13l-37 39q-16 16 -10 28.5z" />
<glyph unicode="-" horiz-adv-x="692" d="M45 604v107q0 35 35 34h534q35 0 35 -34v-107q0 -33 -35 -33h-534q-35 0 -35 33z" />
<glyph unicode="." horiz-adv-x="368" d="M59 106q0 49 25 85t98 36q76 0 99.5 -34t23.5 -87q0 -49 -23.5 -86.5t-99.5 -37.5q-41 0 -65.5 10t-36.5 27.5t-16.5 40t-4.5 46.5z" />
<glyph unicode="/" horiz-adv-x="503" d="M6 -94q6 29 20.5 100.5t36 173t47 222t52 245.5t52.5 246t47.5 222.5t36.5 173t21 100.5q6 31 41 30h115q33 0 27 -39l-312 -1480q-6 -31 -38 -31h-117q-39 0 -29 37z" />
<glyph unicode="0" d="M59 698q0 49 2 119t15.5 145.5t42 149.5t79 132.5t128 94t190.5 35.5q164 0 258 -62.5t141.5 -160.5t59.5 -218t12 -235q0 -109 -11 -233.5t-57.5 -232t-141.5 -179t-261 -71.5q-109 0 -185.5 30.5t-127.5 85t-80 125t-43 150.5t-17.5 162.5t-3.5 162.5zM297 678 q0 -104 7 -193.5t29.5 -155t66.5 -102.5t116 -37q74 0 120 36t71.5 100.5t34 154.5t8.5 197q0 115 -8.5 206t-33 154.5t-70.5 97t-122 33.5q-72 0 -115 -38.5t-66.5 -105.5t-30.5 -156t-7 -191z" />
<glyph unicode="1" d="M182 35v129q0 37 41 37h195v913h-174q-23 0 -33 5t-10 26v74q0 14 5 26t27 23l156 71q25 10 48.5 14.5t51.5 4.5h113q29 0 38 -10.5t9 -28.5v-1118h211q23 0 31 -9.5t8 -25.5v-131q0 -18 -8 -26.5t-31 -8.5h-637q-41 0 -41 35z" />
<glyph unicode="2" d="M76 37v117q0 39 28 69q31 33 91.5 99.5t128 140.5t132 145.5t101.5 114.5q49 55 79 116.5t30 135.5q0 49 -7.5 85t-29 58.5t-60.5 33.5t-102 11q-78 0 -152.5 -8t-148.5 -18q-35 -4 -47.5 3t-16.5 29l-12 84q-4 16 0 30.5t39 31.5q35 16 83 27.5t96 18.5t92 10t71 3 q121 0 204 -25.5t134 -73.5t73.5 -116.5t22.5 -157.5q0 -68 -10 -121t-31.5 -100t-54.5 -92t-78 -98q-39 -47 -73.5 -86t-74.5 -82t-86 -92t-108 -117l4 -12h490q43 0 43 -35v-129q0 -18 -7.5 -27.5t-31.5 -9.5h-764q-47 0 -47 37z" />
<glyph unicode="3" d="M72 102l14 84q4 23 15.5 31t45.5 4q76 -10 152 -19t147 -9q51 0 97.5 9t81 37.5t55 85t20.5 148.5q0 72 -36.5 107.5t-96.5 48.5l-227 45q-31 6 -41 18.5t-10 38.5v68q0 25 5 39t17 28l277 285l-2 8h-447q-43 0 -43 37v127q0 35 41 35h707q27 0 36 -9.5t9 -27.5v-109 q0 -27 -7.5 -47t-31.5 -45l-256 -270v-6l111 -27q115 -29 175 -108t60 -220q0 -152 -35 -249t-98.5 -154t-153.5 -79.5t-200 -22.5q-25 0 -68 3t-91 10t-95 17.5t-82 24.5q-31 14 -40 29.5t-5 33.5z" />
<glyph unicode="4" d="M25 377v117q0 14 4 28.5t16 30.5q18 29 62.5 89t98.5 137t115.5 161t116 161t97.5 136t61 88q14 18 29.5 24.5t44.5 6.5h139q23 0 30 -10.5t7 -22.5v-782h125q35 0 35 -35v-133q0 -33 -35 -33h-125v-303q0 -16 -7.5 -26.5t-31.5 -10.5h-154q-37 0 -37 35v305h-544 q-20 0 -33.5 7t-13.5 30zM274 537h344v477l-4 2l-340 -473v-6z" />
<glyph unicode="5" d="M74 104l14 80q4 23 14.5 32t47.5 3q68 -10 149.5 -18t153.5 -8q51 0 95 9t77.5 38.5t53 85t19.5 147.5q0 74 -34.5 108.5t-98.5 47.5l-391 76q-41 8 -54.5 30.5t-8.5 57.5l71 514q4 29 17.5 40t48.5 11h590q41 0 41 -35v-127q0 -23 -10.5 -30t-32.5 -7h-453l-35 -274 l324 -62q119 -23 192.5 -101.5t73.5 -232.5q0 -150 -35 -248t-98.5 -155t-153.5 -79.5t-198 -22.5q-25 0 -68 3t-91 10t-95 17.5t-82 24.5q-31 14 -39 29.5t-4 35.5z" />
<glyph unicode="6" d="M63 631q0 84 5.5 172t23 170t50 154.5t87 127t133 86t189.5 31.5q23 0 60.5 -2t81.5 -7t90 -15.5t85 -26.5q35 -14 42.5 -30.5t2.5 -37.5l-16 -79q-8 -41 -59 -35q-63 10 -139 17t-144 7q-72 0 -118 -26.5t-73.5 -73.5t-40 -111.5t-16.5 -138.5q55 6 97 11t77 7.5t67 3.5 t66 1q182 0 273.5 -107t91.5 -334q0 -115 -38 -193.5t-102.5 -127.5t-148.5 -70.5t-174 -21.5q-164 0 -254 48t-135 135t-54.5 205.5t-9.5 260.5zM299 608q0 -43 1 -91t4 -92t10.5 -82t17.5 -62q20 -41 63 -69t127 -28q39 0 78 8.5t70.5 31t51 62t19.5 105.5 q0 119 -32.5 178.5t-124.5 59.5q-41 0 -113 -4t-172 -17z" />
<glyph unicode="7" d="M63 1192v129q0 37 39 37h795q29 0 37 -11.5t8 -27.5v-78q0 -35 -7 -63.5t-20 -57.5l-483 -1102q-16 -35 -34.5 -45t-53.5 4l-102 41q-33 14 -38 26.5t9 45.5l465 1067h-576q-39 0 -39 35z" />
<glyph unicode="8" d="M47 375q0 119 49.5 208t147.5 138q-76 35 -118 106.5t-42 151.5q0 201 114.5 299t313.5 98q94 0 172 -22.5t134 -68.5t87 -119.5t31 -174.5q0 -72 -42 -150.5t-122 -119.5q96 -41 149.5 -131t53.5 -211q0 -92 -33 -166t-94.5 -125t-147.5 -78.5t-192 -27.5 q-213 0 -337 93t-124 300zM287 397q0 -57 17.5 -97t48 -65.5t70.5 -37t85 -11.5t86 13.5t72.5 39t50 62.5t18.5 86q0 59 -19.5 100t-51 71t-74.5 48.5t-90 30.5q-37 -10 -75 -25.5t-68.5 -42t-50 -68.5t-19.5 -104zM324 987q0 -82 53 -122t135 -62q98 20 142 66t44 118 q0 98 -52 143.5t-134 45.5q-104 0 -146 -50.5t-42 -138.5z" />
<glyph unicode="9" d="M59 961q0 113 38 191.5t102.5 127.5t148.5 70.5t176 21.5q160 0 250 -48t135 -135t55.5 -206t10.5 -260q0 -84 -6 -171t-23.5 -170t-50.5 -154.5t-87 -126t-133 -86t-188 -31.5q-23 0 -62.5 2t-85.5 7t-93 15t-86 27q-31 16 -39 28.5t-4 34.5l16 80q6 25 17.5 34t39.5 5 q35 -4 76 -9t81 -9t76 -6.5t60 -2.5q72 0 118 27t73.5 74t40 111.5t16.5 138.5q-55 -6 -96 -11.5t-76 -7.5t-66.5 -3t-68.5 -1q-182 0 -273.5 108t-91.5 335zM297 963q0 -117 31.5 -178.5t128.5 -61.5q80 0 282 25q0 45 -2 93t-6 93t-10 81t-16 58q-18 43 -61.5 69.5 t-127.5 26.5q-39 0 -78 -8t-70.5 -30.5t-51 -63.5t-19.5 -104z" />
<glyph unicode=":" horiz-adv-x="378" d="M68 106q0 49 23.5 85t96.5 36q76 0 99.5 -34t23.5 -87q0 -49 -22.5 -86.5t-100.5 -37.5q-41 0 -64.5 10t-35.5 27.5t-16 40t-4 46.5zM68 797q0 51 23.5 86t96.5 35q76 0 99.5 -34t23.5 -87q0 -49 -22.5 -87t-100.5 -38q-41 0 -64.5 10t-35.5 27.5t-16 40t-4 47.5z" />
<glyph unicode=";" horiz-adv-x="378" d="M37 -233.5q6 12.5 20 28.5q33 35 44.5 75t11.5 69q0 39 -13.5 73.5t-31.5 61.5q-12 20 -13.5 32.5t21.5 28.5l90 84q18 16 39.5 18.5t42.5 -16.5q35 -33 50 -85t15 -89q0 -123 -53 -214t-121 -136q-10 -8 -26.5 -11t-28.5 13l-39 39q-14 16 -8 28.5zM66 797q0 51 24.5 86 t97.5 35q76 0 99.5 -34t23.5 -87q0 -49 -22.5 -87t-100.5 -38q-41 0 -64.5 10t-36.5 27.5t-17 40t-4 47.5z" />
<glyph unicode="&#x3c;" horiz-adv-x="1024" d="M133 614v101q0 16 7 24.5t20 16.5l694 413q14 8 25.5 3t11.5 -21v-145q0 -18 -8.5 -25.5t-20.5 -15.5l-485 -295v-6q123 -74 242.5 -147t242.5 -144q14 -8 22.5 -17.5t8.5 -27.5v-152q0 -14 -11.5 -20t-23.5 4l-694 413q-12 6 -21.5 13.5t-9.5 27.5z" />
<glyph unicode="=" horiz-adv-x="1024" d="M127 442v107q0 33 35 33h700q35 0 35 -33v-107q0 -35 -35 -34h-700q-35 0 -35 34zM127 780v107q0 33 35 33h700q35 0 35 -33v-107q0 -33 -35 -32h-700q-16 0 -25.5 6t-9.5 26z" />
<glyph unicode="&#x3e;" horiz-adv-x="1024" d="M133 176v152q0 18 8.5 27.5t22.5 17.5q123 72 242.5 144.5t242.5 146.5v6l-485 295q-12 8 -20.5 15t-8.5 26v145q0 16 11.5 21.5t25.5 -3.5l694 -413q12 -8 19.5 -16.5t7.5 -24.5v-101q0 -20 -9.5 -27t-21.5 -14l-694 -413q-12 -10 -23.5 -4t-11.5 20z" />
<glyph unicode="?" horiz-adv-x="696" d="M23 1278q-4 20 2 31.5t34 23.5q59 29 129 37t111 8q182 0 272.5 -83.5t90.5 -241.5q0 -51 -14.5 -92t-36 -74t-48 -58.5t-51.5 -48.5q-35 -29 -63.5 -57.5t-48 -62t-31 -74.5t-11.5 -92v-42t2 -55q0 -18 -7 -29.5t-29 -11.5h-119q-25 0 -34 7.5t-13 29.5q-4 35 -5 67 t-1 56q0 70 16 125t44 102.5t66.5 88t83.5 83.5q33 29 52.5 55.5t19.5 67.5q0 76 -39 108t-125 32q-39 0 -87 -4.5t-95 -10.5q-35 -4 -43 3.5t-12 27.5zM145 104q0 51 24 86t97 35q74 0 97.5 -34t23.5 -87q0 -49 -22.5 -85.5t-98.5 -36.5q-41 0 -64.5 10t-35.5 27.5 t-16.5 39t-4.5 45.5z" />
<glyph unicode="@" horiz-adv-x="1523" d="M80 698q0 160 55 295t152.5 233.5t227.5 154t280 55.5q162 0 283.5 -54.5t203.5 -148.5t123 -220t41 -270q0 -115 -28.5 -199.5t-75 -140t-104.5 -83t-120 -27.5q-168 0 -223 121q-47 -35 -106.5 -58.5t-124.5 -23.5q-111 0 -157 54t-46 167q0 139 67.5 200.5t202.5 61.5 h135v39q0 66 -27.5 89.5t-90.5 23.5q-29 0 -72 -3t-96 -10q-29 -4 -39.5 -3t-14.5 24l-8 43q-4 16 -2 27.5t23 21.5q18 10 45.5 18.5t59.5 13.5t65.5 8t62.5 3q86 0 138.5 -19.5t79 -55.5t34.5 -88t8 -118v-290q0 -16 3 -33t12.5 -32t28 -24.5t48.5 -9.5q66 0 113 77t47 218 q0 121 -32.5 223.5t-95 176t-153 114.5t-204.5 41q-121 0 -222.5 -45t-176 -124t-116.5 -187.5t-42 -233.5q0 -129 36.5 -236.5t106.5 -186t166 -122.5t217 -44q47 0 100.5 6t118.5 22q12 4 25.5 3t19.5 -17l21 -59q6 -18 3 -28.5t-24 -21.5q-49 -23 -125 -37t-147 -14 q-158 0 -283 54.5t-214 150.5t-136 231.5t-47 296.5zM627 559q0 -49 17.5 -68.5t51.5 -19.5q18 0 41 6t46.5 16.5t46 22.5t38.5 25v145h-147q-43 0 -68.5 -27.5t-25.5 -99.5z" />
<glyph unicode="A" horiz-adv-x="1056" d="M18 43l361 1272q6 23 17.5 33t41.5 10h172q31 0 42.5 -11.5t17.5 -31.5l360 -1274q4 -16 0 -28.5t-24 -12.5h-175q-29 0 -38 10t-15 33l-73 295h-371l-74 -295q-8 -27 -20.5 -35t-36.5 -8h-154q-34 0 -34 26q0 8 3 17zM381 528h276l-77 332q-14 59 -27.5 118.5 t-24.5 121.5h-8q-4 -16 -11 -48t-14.5 -67t-14.5 -67.5t-13 -53.5q-4 -14 -16.5 -63t-26.5 -104.5t-26.5 -104.5t-16.5 -64z" />
<glyph unicode="B" horiz-adv-x="1052" d="M109 39v1280q0 18 9 28.5t36 10.5h395q199 0 300 -95.5t101 -261.5q0 -29 -6 -67.5t-24.5 -78.5t-52 -77t-89.5 -61v-4q63 -20 103.5 -60.5t64 -86.5t32.5 -94t9 -85q0 -90 -29.5 -161.5t-82 -122t-122 -77t-147.5 -26.5h-448q-29 0 -39 10t-10 29zM344 203h197 q57 0 97 16.5t62.5 44t32.5 63t10 76.5q0 39 -12 76t-36.5 64.5t-62.5 45t-91 17.5h-197v-403zM344 803h193q72 0 120 51t48 125q0 78 -45.5 127t-145.5 49h-170v-352z" />
<glyph unicode="C" horiz-adv-x="1003" d="M94 670q0 131 18.5 257t73 225t151.5 159.5t255 60.5q72 0 168 -13t168 -44q42 -20 42 -57q0 -5 -1 -9l-17 -84q-4 -20 -16 -27.5t-43 -2.5q-35 4 -76 7t-81 6t-74.5 5t-57.5 2q-86 0 -137 -39t-79 -104.5t-36 -153.5t-8 -186q0 -100 10.5 -186.5t38 -150t78.5 -99 t133 -35.5q59 0 134 5t155 15q33 4 44 -5t17 -28l17 -77q1 -7 1 -13q0 -37 -40 -55q-35 -16 -78 -26.5t-89 -18.5t-92 -11t-85 -3q-154 0 -250 58t-150.5 153.5t-74 219.5t-19.5 255z" />
<glyph unicode="D" horiz-adv-x="1134" d="M113 39v1280q0 18 8 28.5t35 10.5h344q166 0 271.5 -54.5t164.5 -146.5t81.5 -215t22.5 -260q0 -139 -21.5 -263t-80.5 -217t-164.5 -147.5t-273.5 -54.5h-340q-29 0 -38 10t-9 29zM346 205h131q63 0 121.5 18.5t102.5 69.5t70 141.5t26 231.5q0 143 -22.5 237 t-62.5 150.5t-96.5 79t-123.5 22.5h-146v-950z" />
<glyph unicode="E" horiz-adv-x="942" d="M106 37v1282q0 39 46 39h667q41 0 41 -37v-129q0 -18 -6 -27.5t-33 -9.5h-477v-342h424q41 0 41 -35v-129q0 -18 -7 -27.5t-34 -9.5h-424v-409h504q23 0 30 -9.5t7 -27.5v-129q0 -18 -7.5 -27.5t-33.5 -9.5h-692q-45 0 -46 37z" />
<glyph unicode="F" horiz-adv-x="890" d="M113 39v1282q0 18 9 27.5t38 9.5h663q43 0 43 -37v-127q0 -18 -8 -28.5t-35 -10.5h-477v-350h412q41 0 41 -37v-127q0 -20 -8.5 -29.5t-34.5 -9.5h-408v-563q0 -16 -9 -27.5t-36 -11.5h-143q-47 0 -47 39z" />
<glyph unicode="G" horiz-adv-x="1110" d="M94 670q0 131 19.5 257t75 225t152.5 160.5t253 61.5q33 0 78 -4t91 -11t89 -17.5t76 -24.5q27 -12 39 -25.5t6 -38.5l-19 -86q-6 -23 -17 -30t-46 -2q-31 4 -70 8t-76.5 8t-73.5 6t-63 2q-84 0 -135 -39t-78.5 -106.5t-37 -155.5t-9.5 -186q0 -96 10.5 -182.5t38 -152 t78.5 -104t133 -38.5q39 0 88 6t76 16v340h-125q-29 0 -37 9t-8 30v119q0 20 8 29.5t37 9.5h309q29 0 41.5 -13.5t12.5 -27.5v-105v-170t-1 -178t-1 -129q0 -29 -13.5 -52.5t-48.5 -37.5q-78 -29 -172 -43t-172 -14q-147 0 -245.5 51t-157 143t-82 218t-23.5 274z" />
<glyph unicode="H" horiz-adv-x="1103" d="M109 39v1280q0 39 45 39h149q27 0 34 -10.5t7 -28.5v-504h414v504q0 20 9 29.5t36 9.5h149q27 0 34 -10.5t7 -28.5v-1280q0 -16 -7 -27.5t-34 -11.5h-149q-27 0 -36 9t-9 30v571h-414v-571q0 -16 -7 -27.5t-34 -11.5h-149q-45 0 -45 39z" />
<glyph unicode="I" horiz-adv-x="493" d="M127 39v1280q0 39 45 39h150q27 0 35 -10.5t8 -28.5v-1280q0 -16 -8.5 -27.5t-34.5 -11.5h-150q-45 0 -45 39z" />
<glyph unicode="J" horiz-adv-x="790" d="M-4 58.5q-4 13.5 0 33.5l20 94q4 23 14.5 27t35.5 0q53 -6 104 -11t92 -5q94 0 127 48t33 136v938q0 20 9 29.5t36 9.5h147q29 0 37 -10.5t8 -28.5v-975q-2 -172 -88 -267t-278 -95q-59 0 -136 11t-134 40q-23 12 -27 25.5z" />
<glyph unicode="K" horiz-adv-x="1034" d="M100 39v1280q0 39 45 39h148q27 0 34 -10.5t7 -28.5v-584h8q43 76 89 143.5t81 116.5l225 334q10 16 26.5 22.5t45.5 6.5h176q18 0 26.5 -11.5t-3.5 -27.5l-381 -537l391 -739q10 -16 5 -29.5t-28 -13.5h-178q-35 0 -50 13.5t-26 37.5l-264 524l-143 -202v-334 q0 -16 -7.5 -27.5t-33.5 -11.5h-148q-45 0 -45 39z" />
<glyph unicode="L" horiz-adv-x="905" d="M111 37v1282q0 20 9 29.5t34 9.5h149q25 0 33 -8.5t8 -30.5v-1116h504q39 0 39 -35v-131q0 -18 -7.5 -27.5t-33.5 -9.5h-690q-27 0 -36 9t-9 28z" />
<glyph unicode="M" horiz-adv-x="1349" d="M106 39v1284q0 16 9.5 25.5t34.5 9.5h126q35 0 46.5 -7.5t21.5 -29.5l193 -455q27 -68 57.5 -143.5t77.5 -198.5h10q27 82 62.5 169t70.5 171l193 455q10 20 24.5 29.5t46.5 9.5h121q25 0 32 -10.5t7 -24.5v-1284q0 -16 -8 -27.5t-35 -11.5h-145q-45 0 -45 39v768l-7 2 q-18 -53 -41.5 -113.5t-50.5 -122.5l-133 -317q-14 -39 -55 -39h-82q-27 0 -38 9.5t-21 27.5l-146 336q-23 51 -45 106.5t-45 116.5q-2 -2 -6 -2v-772q0 -16 -8.5 -27.5t-34.5 -11.5h-139q-47 0 -48 39z" />
<glyph unicode="N" horiz-adv-x="1153" d="M109 39v1284q0 35 43 35h118q33 0 45.5 -10.5t22.5 -26.5l319 -567q47 -86 89 -165t65 -132h2q2 0 2 1t2 1v860q0 18 7 28.5t34 10.5h146q25 0 32.5 -9.5t7.5 -29.5v-1280q0 -18 -7 -28.5t-31 -10.5h-117q-31 0 -45.5 9t-26.5 32l-301 532q-66 115 -102.5 188t-69.5 138 h-6v-860q0 -16 -7 -27.5t-34 -11.5h-143q-45 0 -45 39z" />
<glyph unicode="O" horiz-adv-x="1177" d="M90 698q0 68 5 144t23.5 150.5t51.5 144t88 122t135 84t193 31.5q166 0 265 -58.5t151.5 -153.5t68.5 -217t16 -247t-13 -253t-64.5 -230t-151.5 -167.5t-274 -65.5q-172 0 -271.5 65.5t-148.5 167.5t-61.5 230t-12.5 253zM338 678q0 -115 11 -205t39 -153.5t76 -96.5 t122 -33q76 0 125 32t78.5 94.5t42 153.5t12.5 208q0 242 -54.5 366.5t-203.5 124.5q-141 0 -194.5 -128t-53.5 -363z" />
<glyph unicode="P" horiz-adv-x="958" d="M106 39v1282q0 18 9.5 27.5t36.5 9.5h325q96 0 179 -21.5t144.5 -70.5t96.5 -127t35 -189q0 -70 -17.5 -144.5t-63.5 -137t-127 -102.5t-210 -40h-170v-487q0 -16 -8 -27.5t-35 -11.5h-149q-45 0 -46 39zM344 725h152q57 0 96 17.5t61.5 47t31.5 69.5t9 87q0 109 -54 159 t-153 50h-143v-430z" />
<glyph unicode="Q" horiz-adv-x="1183" d="M90 698q0 61 5 136t22.5 150t51.5 145.5t88 125t135 87t194 32.5q166 0 265 -59.5t152.5 -155.5t70 -217t16.5 -244q0 -82 -7.5 -169t-27 -167.5t-57 -152.5t-99.5 -123l199 -66q29 -10 34 -23t-4 -30l-47 -127q-15 -37 -47 -37q-16 0 -35 9l-383 172q-10 -2 -30 -2 q-115 0 -197 30.5t-137 85t-87 125t-49.5 150.5t-21.5 162.5t-4 162.5zM338 678q0 -115 12 -205t41 -153.5t76 -96.5t119 -33q145 0 202.5 126t57.5 362q0 121 -12.5 213t-42 153.5t-79.5 93t-126 31.5q-139 0 -193.5 -128t-54.5 -363z" />
<glyph unicode="R" horiz-adv-x="999" d="M100 37v1282q0 20 9.5 29.5t33.5 9.5h385q78 0 151 -23.5t128 -72t89 -124t34 -180.5q0 -55 -11.5 -110t-37 -106.5t-66.5 -92.5t-100 -65l239 -543q16 -41 -28 -41h-170q-27 0 -40.5 6t-23.5 29l-205 510h-151v-506q0 -16 -8.5 -27.5t-34.5 -11.5h-150q-25 0 -34 8 t-9 29zM336 743h147q39 0 76 7.5t64.5 30t45 62.5t17.5 107q0 59 -15.5 98t-43 63t-63.5 33t-77 9h-151v-410z" />
<glyph unicode="S" horiz-adv-x="972" d="M63 106l17 87q4 29 17.5 33.5t47.5 -1.5q35 -4 78 -9t86 -9t82 -7t70 -3q104 0 156.5 45t52.5 129q0 55 -10.5 91t-34 59.5t-60.5 37.5t-90 25q-80 18 -153.5 42.5t-130 67.5t-91 109.5t-34.5 169.5q0 195 111.5 297t309.5 102q25 0 66 -2t87 -8t94 -16.5t87 -28.5 t44 -32.5t1 -33.5l-16 -82q-6 -23 -17.5 -32t-50.5 -2q-61 10 -135 18t-147 8q-104 0 -146.5 -48t-42.5 -134q0 -47 11.5 -77t35 -48t60.5 -28.5t90 -22.5q76 -18 148.5 -42t130 -68t91 -116.5t33.5 -185.5q0 -117 -36.5 -194.5t-99 -125.5t-144.5 -68.5t-170 -20.5 q-35 0 -80 3t-94 10t-96.5 18.5t-84.5 27.5t-42 31.5t-1 33.5z" />
<glyph unicode="T" horiz-adv-x="901" d="M18 1194v125q0 18 8.5 28.5t34.5 10.5h779q45 0 45 -39v-125q0 -18 -9.5 -28.5t-37.5 -10.5h-271v-1116q0 -16 -7 -27.5t-34 -11.5h-149q-27 0 -36 9t-9 30v1116h-269q-29 0 -37 10.5t-8 28.5z" />
<glyph unicode="U" horiz-adv-x="1120" d="M104 479v838q0 23 10.5 32t39.5 9h139q29 0 38 -10.5t9 -30.5v-823q0 -160 51 -229.5t168 -69.5t171 71.5t54 227.5v823q0 23 9.5 32t37.5 9h140q29 0 38 -10.5t9 -30.5v-838q0 -113 -26.5 -205t-83 -156.5t-143.5 -99t-206 -34.5q-125 0 -212 36.5t-140 102t-78 157 t-25 199.5z" />
<glyph unicode="V" horiz-adv-x="1071" d="M29 1317q-10 41 32 41h154q31 0 43 -9.5t16 -31.5l150 -555q25 -94 53.5 -198.5t57.5 -256.5h8q31 123 55.5 227.5t50.5 208.5l148 570q6 23 18 34t41 11h160q37 0 26 -41l-368 -1274q-6 -20 -19.5 -31.5t-44.5 -11.5h-153q-33 0 -43.5 11.5t-14.5 29.5z" />
<glyph unicode="W" horiz-adv-x="1513" d="M20 1317q-4 18 1.5 30.5t25.5 12.5h164q27 0 38 -9.5t17 -31.5l140 -567q29 -106 48 -202.5t35 -184.5h7q6 33 14 76.5t18.5 90t20.5 92.5t20 85l76 335l-72 275q-6 16 -0.5 28.5t23.5 12.5h156q47 0 57 -41l133 -561q27 -109 48.5 -213.5t39.5 -204.5h8q14 96 36 204.5 t48 231.5l119 543q6 23 17.5 32t39.5 9h158q37 0 25 -45l-305 -1272q-6 -23 -19.5 -33t-42.5 -10h-145q-29 0 -42.5 11.5t-17.5 31.5l-69 276q-6 29 -16.5 71t-21.5 90t-21.5 96.5t-18.5 89.5h-8q-10 -57 -31 -151.5t-43 -184.5l-72 -287q-4 -23 -16 -33t-43 -10h-146 q-29 0 -41 10t-16 33z" />
<glyph unicode="X" horiz-adv-x="985" d="M14.5 12.5q-6.5 12.5 1.5 30.5l344 664l-315 608q-10 16 -3 29.5t28 13.5h168q31 0 41 -7.5t18 -25.5l192 -414l191 410q8 23 19.5 30t39.5 7h168q25 0 31 -13.5t-2 -27.5l-324 -610l349 -668q8 -16 0.5 -27.5t-29.5 -11.5h-168q-23 0 -37 7t-25 28l-213 459l-215 -457 q-10 -23 -22 -30t-41 -7h-170q-20 0 -26.5 12.5z" />
<glyph unicode="Y" horiz-adv-x="1013" d="M18 1319q-8 16 0.5 26.5t22.5 10.5h166q39 0 51 -14.5t35 -65.5l113 -268q29 -66 49 -124.5t43 -113.5h12q18 61 45 123.5t53 122.5l135 301q10 23 21.5 31t42.5 8h160q41 0 26 -37l-375 -764v-518q0 -16 -7 -26.5t-33 -10.5h-148q-27 0 -36 8t-9 29v518z" />
<glyph unicode="Z" horiz-adv-x="921" d="M49 37v92q0 27 4 51.5t23 55.5l526 919h-471q-29 0 -36 9.5t-7 27.5v129q0 18 7 27.5t34 9.5h694q43 0 43 -35v-111q0 -23 -7 -42t-23 -46l-523 -921h514q27 0 35 -9.5t8 -27.5v-127q0 -20 -7 -29.5t-34 -9.5h-739q-41 0 -41 37z" />
<glyph unicode="[" horiz-adv-x="483" d="M57 -162v1548q0 37 41 37h285q35 0 35 -34v-117q0 -35 -37 -35h-111v-1253h113q37 0 37 -35v-115q0 -35 -37 -35h-285q-41 0 -41 39z" />
<glyph unicode="\" horiz-adv-x="499" d="M2 1380q-4 39 27 39h114q37 0 43 -30l314 -1483q6 -37 -31 -37h-117q-12 0 -23.5 8t-15.5 23z" />
<glyph unicode="]" horiz-adv-x="483" d="M72 -51q0 35 37 35h112v1253h-110q-37 0 -37 35v117q0 35 35 34h286q39 0 39 -37v-1548q0 -39 -41 -39h-284q-37 0 -37 35v115z" />
<glyph unicode="^" horiz-adv-x="944" d="M29 790.5q2 10.5 12 26.5l313 510q10 16 22.5 23.5t45.5 7.5h115q29 0 44 -7.5t25 -23.5l297 -518q16 -31 -2 -43l-57 -43q-16 -10 -25.5 -10t-21.5 16l-322 442l-330 -436q-23 -27 -49 -6l-55 39q-14 12 -12 22.5z" />
<glyph unicode="_" horiz-adv-x="890" d="M-33 -170q0 35 35 35h883q35 0 35 -35v-76q0 -33 -35 -33h-883q-35 0 -35 33v76z" />
<glyph unicode="`" horiz-adv-x="917" d="M266 1425.5q6 12.5 25 24.5l100 68q10 8 23.5 10t23.5 -15l166 -309q6 -10 7 -20t-13 -21l-72 -49q-25 -16 -43 8l-209 275q-14 16 -8 28.5z" />
<glyph unicode="a" horiz-adv-x="966" d="M57 274q0 182 89.5 262t267.5 80h207v46q0 88 -39 127.5t-138 39.5q-51 0 -121.5 -6t-136.5 -14q-35 -6 -41 29l-16 75q-4 16 1 29.5t26 24.5q29 14 70.5 25.5t86.5 18.5t89 10t77 3q119 0 191.5 -27.5t111.5 -78t51.5 -122t12.5 -157.5v-383q0 -59 7 -74.5t48 -17.5 q27 -4 35 -9t8 -22v-80q0 -16 -6 -28.5t-29 -18.5q-37 -14 -102 -14q-76 0 -115 23.5t-53 80.5q-2 0 -3 1t-3 1q-66 -51 -147 -82.5t-167 -31.5q-76 0 -126 21.5t-80.5 59t-43 91t-12.5 118.5zM289 285q0 -66 21.5 -90.5t74.5 -24.5q27 0 58.5 8t63.5 22.5t60.5 30 t50.5 31.5v191h-190q-59 0 -99 -35t-40 -133z" />
<glyph unicode="b" horiz-adv-x="942" d="M74 129v1274q0 41 45 41h139q29 0 37 -12.5t8 -28.5v-418l4 -4q59 25 108.5 33t90.5 8q115 0 187.5 -34t113.5 -98.5t56.5 -158.5t15.5 -217t-18.5 -221t-64.5 -167t-124 -106.5t-197 -37.5q-41 0 -87 3t-93 10t-90 17.5t-74 24.5q-37 16 -47 40.5t-10 51.5zM303 205 q78 -16 158 -17q37 0 70.5 12.5t59 46.5t41 96.5t15.5 160.5q0 94 -9 155.5t-27.5 98.5t-49.5 51t-74 14q-35 0 -84 -8t-100 -27v-583z" />
<glyph unicode="c" horiz-adv-x="800" d="M63 504q0 94 13.5 187t55.5 167t118 120t203 46q33 0 71.5 -4t78.5 -11.5t78 -17.5t69 -24q29 -12 22 -49l-14 -84q-7 -31 -41 -31h-8q-74 8 -130.5 13t-103.5 5q-98 0 -138 -71.5t-40 -239.5q0 -94 9 -156.5t29.5 -100.5t54.5 -54.5t83 -16.5q35 0 99.5 4t134.5 15 q23 4 38 0t19 -29l14 -76q4 -23 -1 -34t-23 -23q-25 -14 -61 -24.5t-77 -17.5t-82.5 -10t-80.5 -3q-127 0 -204 41t-118 112.5t-54.5 166.5t-13.5 200z" />
<glyph unicode="d" horiz-adv-x="944" d="M61 485q0 125 15.5 225.5t56.5 170t111.5 106.5t183.5 37q41 0 95.5 -8t109.5 -27l4 6v408q0 20 9 30.5t38 10.5h137q29 0 35 -11.5t6 -29.5v-1364q0 -16 -9 -27.5t-32 -11.5h-143q-41 0 -41 39v39h-2q-2 0 -4 2q-49 -35 -122 -64.5t-142 -29.5q-92 0 -150.5 34.5 t-93.5 99t-48.5 157t-13.5 208.5zM291 492q0 -96 9 -154.5t25.5 -90.5t40 -42t54.5 -10q25 0 54.5 6t59 16t57 22.5t46.5 24.5v533q-57 16 -104.5 22t-79.5 6q-43 0 -74 -16t-50.5 -55t-28.5 -103.5t-9 -158.5z" />
<glyph unicode="e" horiz-adv-x="899" d="M63 498q0 74 10.5 166t50.5 171.5t120 134t217 54.5q125 0 201.5 -41t118.5 -105.5t57.5 -147.5t15.5 -165q0 -59 -20.5 -92t-81.5 -33h-455q2 -76 15.5 -125t38 -78.5t61.5 -42t86 -12.5t110.5 5.5t118.5 13.5q23 4 40 1t21 -30l13 -72q1 -7 1 -13q0 -31 -32 -48 q-29 -12 -65.5 -23.5t-77.5 -18.5t-82 -11t-76 -4q-133 0 -213 43t-123 113.5t-56.5 163.5t-13.5 196zM297 596h324q-2 49 -8.5 94t-24 78t-49 52.5t-80.5 19.5q-84 0 -121 -58.5t-41 -185.5z" />
<glyph unicode="f" horiz-adv-x="700" d="M45 862v101q0 20 8 30.5t33 10.5h74v108q0 78 17.5 141.5t57 107.5t102.5 68.5t155 24.5q27 0 60.5 -4t67 -10t63.5 -15.5t48 -21.5q16 -8 20.5 -20.5t0.5 -30.5l-15 -88q-4 -23 -19.5 -26t-37.5 1q-59 10 -98 12t-64 2q-72 0 -103.5 -41t-31.5 -127v-81h203 q27 0 34 -10.5t7 -28.5v-103q0 -23 -7.5 -32t-33.5 -9h-203v-782q0 -16 -7 -27.5t-34 -11.5h-139q-27 0 -36 9t-9 30v88v139t1 164t1 164v139.5v87.5h-74q-27 0 -34 9.5t-7 31.5z" />
<glyph unicode="g" horiz-adv-x="944" d="M68 498q0 121 19 218t65.5 165.5t125 105.5t199.5 37q86 0 178.5 -13.5t157.5 -41.5q39 -14 48 -39t9 -53v-861q0 -90 -11 -165.5t-51 -131t-118 -87t-211 -31.5q-68 0 -150.5 11t-144.5 36q-31 14 -38 28.5t-3 32.5l15 78q4 27 16 31t45 -2q66 -10 135.5 -15.5 t112.5 -5.5q104 0 141 42t37 136v60q-63 -25 -113.5 -34t-91.5 -9q-117 0 -189.5 36.5t-113.5 103.5t-55 160t-14 208zM301 516q0 -94 9 -156.5t27.5 -100.5t48.5 -53.5t73 -15.5q76 0 184 35v576q-78 16 -156 16q-39 0 -72.5 -10t-59 -42t-40 -91.5t-14.5 -157.5z" />
<glyph unicode="h" horiz-adv-x="950" d="M76 39v1366q0 20 9 29.5t34 9.5h141q27 0 35 -10.5t8 -28.5v-469l8 -4q49 31 122 60.5t147 29.5q98 0 156.5 -32t87 -85t36.5 -122.5t8 -147.5v-596q0 -16 -9 -27.5t-36 -11.5h-141q-43 0 -43 39l2 592q0 57 -7 94t-22.5 56.5t-37 26.5t-50.5 7q-25 0 -53.5 -7t-58 -17.5 t-58 -24.5t-51.5 -27v-700q0 -16 -9 -27.5t-36 -11.5h-139q-25 0 -34 9t-9 30z" />
<glyph unicode="i" horiz-adv-x="442" d="M100 1270q0 49 23.5 82.5t95.5 33.5q78 0 100.5 -31.5t22.5 -84.5q0 -25 -4 -46.5t-17.5 -38t-38 -26.5t-63.5 -10q-78 0 -98.5 37t-20.5 84zM106 39v926q0 39 48 39h135q27 0 35 -11.5t8 -27.5v-926q0 -16 -8.5 -27.5t-34.5 -11.5h-135q-47 0 -48 39z" />
<glyph unicode="j" horiz-adv-x="471" d="M-117 -289q-2 23 7.5 33t31.5 16q61 14 101 26.5t65 34t34 57.5t9 95v992q0 39 47 39h133q29 0 38 -10.5t9 -28.5v-983q0 -102 -20.5 -180t-69.5 -129.5t-129 -76.5q-69 -21 -166 -21q-15 0 -32 1q-12 0 -31 7t-21 32zM125 1270q0 49 23.5 82.5t95.5 33.5 q76 0 98.5 -31.5t22.5 -84.5q0 -25 -4.5 -46.5t-17.5 -38t-36.5 -26.5t-62.5 -10q-41 0 -64.5 10t-36 26.5t-15.5 39t-3 45.5z" />
<glyph unicode="k" horiz-adv-x="864" d="M86 37v1368q0 39 41 39h141q27 0 35 -11.5t8 -27.5v-811q2 0 2 -1t2 -1q43 68 75 118t60.5 92t55 81t59.5 86q12 16 25.5 25.5t46.5 9.5h158q23 0 27.5 -15.5t-7.5 -32.5l-262 -360l299 -551q10 -16 3 -30.5t-30 -14.5h-153q-41 0 -56.5 22.5t-31.5 53.5l-172 330 q-27 -35 -51.5 -70t-49.5 -70v-229q0 -16 -8 -26.5t-35 -10.5h-141q-41 0 -41 37z" />
<glyph unicode="l" horiz-adv-x="473" d="M104 217v1184q0 23 9.5 32t36.5 9h131q29 0 38 -10.5t9 -30.5v-1147q0 -45 17 -56.5t52 -13.5q23 -2 35 -5t14 -25l9 -97q2 -27 -21 -39q-27 -16 -66.5 -22t-68.5 -6q-115 0 -155 57t-40 170z" />
<glyph unicode="m" horiz-adv-x="1470" d="M82 39v926q0 20 8 29.5t33 9.5h141q27 0 35 -10.5t8 -28.5v-45q2 0 5 -1t5 -1q49 39 119 71.5t142 32.5q98 0 152 -37t79 -92q94 74 166 101.5t139 27.5q96 0 150.5 -32t82 -85t33.5 -123.5t6 -148.5v-592q0 -18 -7 -29.5t-33 -11.5h-148q-41 0 -41 39v68.5v107.5t1 126 t1 126v106.5v67.5q0 102 -27.5 137t-78.5 35q-49 0 -104.5 -27.5t-106.5 -56.5q2 -29 3 -55.5t1 -55.5v-579q0 -16 -7.5 -27.5t-33.5 -11.5h-143q-25 0 -33 9t-8 30v119t1 183t1 183v119q0 102 -29 136t-80 34t-104.5 -23.5t-102.5 -52.5v-696q0 -18 -7 -29.5t-34 -11.5 h-143q-25 0 -33 9t-8 30z" />
<glyph unicode="n" horiz-adv-x="937" d="M74 39v926q0 20 8 29.5t33 9.5h143q41 0 41 -39v-43l10 -4q53 41 128 72.5t147 31.5q98 0 153.5 -32t84 -85t35.5 -123.5t7 -148.5v-594q0 -16 -8 -27.5t-35 -11.5h-143q-43 0 -43 39v67.5v105.5t1 123.5t1 124v104.5v67q0 109 -28.5 145.5t-86.5 36.5 q-49 0 -112.5 -24.5t-110.5 -49.5v-700q0 -16 -8 -27.5t-35 -11.5h-141q-25 0 -33 9t-8 30z" />
<glyph unicode="o" horiz-adv-x="935" d="M63 518q0 68 11.5 155t51.5 164.5t119 132t216 54.5t218 -46t123 -118t54 -163t12 -179q0 -90 -10 -184t-51 -172t-122 -128t-224 -50q-139 0 -218 50t-119 128t-50.5 172t-10.5 184zM293 504q0 -162 32.5 -243t135.5 -81q111 0 144.5 81t33.5 243q0 160 -33 241.5 t-143 81.5q-104 0 -137 -82.5t-33 -240.5z" />
<glyph unicode="p" horiz-adv-x="933" d="M82 -338v1303q0 18 8 28.5t33 10.5h143q27 0 34 -10.5t7 -28.5v-43l6 -4q25 18 55.5 36.5t66.5 32.5t72 23.5t68 9.5q92 0 151.5 -37t94.5 -103.5t48.5 -160.5t13.5 -211q0 -125 -16.5 -223.5t-57.5 -166t-111.5 -103t-181.5 -35.5q-41 0 -95 8t-108 26l-6 -4v-348 q0 -16 -6 -28.5t-35 -12.5h-143q-29 0 -35 10.5t-6 30.5zM307 207q53 -16 100.5 -22.5t81.5 -6.5q43 0 75 16.5t51.5 54.5t28.5 101.5t9 159.5q0 94 -9 152.5t-25.5 91t-41 43t-55.5 10.5q-25 0 -54.5 -7t-60 -17.5t-57 -22.5t-43.5 -25v-528z" />
<glyph unicode="q" horiz-adv-x="944" d="M68 489q0 121 19 220.5t66.5 169t126 107.5t197.5 38q39 0 85 -3t92 -10t88 -17.5t73 -24.5q37 -16 46 -40t9 -52v-1215q0 -18 -6 -29.5t-35 -11.5h-143q-27 0 -35 10.5t-8 30.5v356l-4 5q-59 -23 -108.5 -31t-90.5 -8q-113 0 -185.5 33.5t-113.5 98t-57 159t-16 214.5z M301 502q0 -94 9 -155.5t27.5 -98.5t48.5 -51.5t73 -14.5q35 0 84 9.5t102 25.5v584q-39 10 -79 13t-81 3q-37 0 -70.5 -12t-59 -46t-40 -95.5t-14.5 -161.5z" />
<glyph unicode="r" horiz-adv-x="651" d="M115 39v926q0 39 41 39h141q29 0 37 -11.5t8 -27.5v-78l4 -4q25 25 56.5 46t67.5 39.5t72 31t66 16.5q20 2 29.5 -6.5t11.5 -30.5l13 -129q4 -27 -4.5 -40t-36.5 -22q-84 -20 -158 -44.5t-121 -47.5v-657q0 -16 -8 -27.5t-35 -11.5h-143q-41 0 -41 39z" />
<glyph unicode="s" horiz-adv-x="819" d="M59 98l15 68q4 29 17 33t44 0q59 -10 133 -17.5t119 -7.5q76 0 109.5 27.5t33.5 87.5q0 68 -27.5 92.5t-99.5 36.5q-66 12 -128 28.5t-109 49t-76 85t-29 134.5q0 154 97.5 231.5t255.5 77.5q27 0 63.5 -3t75.5 -9t75 -14.5t62 -20.5q29 -12 39 -24.5t6 -34.5l-14 -76 q-4 -23 -16.5 -28t-47.5 -1q-72 8 -136 13t-105 5h-10q-68 1 -90 -25q-24 -28 -25 -85q0 -57 33.5 -75.5t105.5 -31.5q63 -10 122.5 -27.5t107 -51t76 -89t28.5 -143.5q0 -90 -32 -151.5t-84 -98.5t-119.5 -53t-139.5 -16q-70 0 -150.5 11t-134.5 36q-35 14 -42 29.5 t-3 37.5z" />
<glyph unicode="t" horiz-adv-x="647" d="M31 862v101q0 23 8 32t33 9h82v213q0 20 12 29t31 14l129 38q10 2 18 2q31 0 31 -36v-260h182q29 0 34 -10.5t5 -30.5v-99q0 -23 -5 -33t-34 -10h-184v-499q0 -80 19.5 -107t78.5 -27q16 0 53 3.5t66 7.5q31 4 40 -3.5t13 -29.5l12 -78q4 -27 -5 -39t-23 -20 q-51 -27 -118 -36t-114 -9q-72 0 -119 17t-74.5 50t-38.5 79t-11 106v585h-80q-25 0 -33 9.5t-8 31.5z" />
<glyph unicode="u" horiz-adv-x="933" d="M78 307v658q0 16 8 27.5t35 11.5h141q25 0 34 -9.5t9 -29.5v-115t-1 -179.5t-1 -178v-113.5q0 -59 7 -96t21.5 -57.5t35 -26.5t49.5 -6q47 0 103 23.5t110 51.5v697q0 18 9 28.5t36 10.5h139q25 0 33 -9.5t8 -29.5v-926q0 -20 -8 -29.5t-33 -9.5h-143q-27 0 -34 10t-7 29 v47q-2 0 -5 2t-6 2q-53 -45 -127.5 -76.5t-146.5 -31.5q-92 0 -144.5 26.5t-79 70.5t-34.5 103.5t-8 124.5z" />
<glyph unicode="v" horiz-adv-x="892" d="M18 961q-4 16 3.5 29.5t25.5 13.5h156q23 0 33 -7.5t16 -29.5l154 -549q2 -12 8 -36t12 -49.5t12 -46t6 -24.5h7q0 4 5 25.5t12 47t14 49.5t10 34q39 152 75.5 284t77.5 267q4 16 12.5 25.5t34.5 9.5h154q18 0 26.5 -11.5t1.5 -29.5l-303 -920q-8 -23 -21 -33t-38 -10 h-131q-45 0 -56.5 25.5t-21.5 58.5z" />
<glyph unicode="w" horiz-adv-x="1284" d="M20 961q-4 16 3.5 29.5t25.5 13.5h152q27 0 35 -8.5t14 -30.5l117 -461q12 -51 25.5 -100.5t23.5 -100.5h6q12 51 18 77t11.5 44t11.5 37.5t16 58.5l68 242l-58 199q-4 16 3.5 29.5t25.5 13.5h144q27 0 33.5 -8.5t13.5 -30.5l79 -301q25 -92 49.5 -186.5t36.5 -172.5h9 q16 94 39.5 190.5t40.5 166.5l73 307q4 16 12.5 25.5t34.5 9.5h152q39 0 29 -41l-256 -912q-8 -29 -18.5 -40t-39.5 -11h-125q-35 0 -46 15.5t-19 43.5l-53 205q-18 68 -31.5 122t-24.5 106h-6q-8 -47 -19.5 -97.5t-33.5 -124.5l-72 -231q-6 -23 -17 -31t-32 -8h-125 q-35 0 -44 13.5t-15 35.5z" />
<glyph unicode="x" horiz-adv-x="851" d="M5.5 12.5q-9.5 12.5 2.5 28.5l277 471l-258 451q-10 16 -3 28.5t27 12.5h166q29 0 37 -8.5t18 -30.5l148 -293l151 301q8 16 17.5 23.5t32.5 7.5h174q16 0 26 -10.5t0 -30.5l-268 -449l283 -473q10 -16 1.5 -28.5t-28.5 -12.5h-172q-41 0 -57 31l-162 315l-158 -315 q-16 -31 -57 -31h-170q-18 0 -27.5 12.5z" />
<glyph unicode="y" horiz-adv-x="886" d="M29 963q-14 41 28 41h154q23 0 32 -7.5t15 -27.5l119 -410q16 -61 33.5 -122.5t29.5 -133.5h11l77 283l109 385q6 16 15.5 24.5t33.5 8.5h150q25 0 28.5 -11.5t-2.5 -29.5l-416 -1305q-8 -20 -18 -28.5t-39 -8.5h-133q-34 0 -34 25q0 7 3 16l115 350z" />
<glyph unicode="z" horiz-adv-x="802" d="M37 33v57q0 41 7 67.5t32 63.5l407 592h-372q-41 0 -41 41v113q0 37 41 37h587q45 0 45 -35v-78q0 -39 -11 -64.5t-42 -72.5l-383 -564h402q25 0 34 -7t9 -29v-117q0 -37 -41 -37h-635q-41 0 -39 33z" />
<glyph unicode="{" horiz-adv-x="536" d="M33 580v65q0 27 30 35q31 10 47.5 27.5t23.5 41t7 54.5v65v340q0 41 9.5 83t32 75t60.5 53.5t95 20.5q29 0 62.5 -3t56.5 -7q35 -8 35 -37v-88q0 -20 -10.5 -26.5t-28.5 -6.5q-70 -4 -87.5 -26.5t-17.5 -65.5v-326q0 -29 -4 -63.5t-16.5 -68.5t-34 -63.5t-55.5 -46.5v-6 q41 -20 63.5 -47t32.5 -57.5t12 -65.5t2 -71v-340q0 -45 17.5 -63.5t87.5 -24.5q18 -2 28.5 -7.5t10.5 -25.5v-82q0 -27 -35 -37q-31 -10 -60.5 -12t-50.5 -2q-61 0 -101 19.5t-63.5 51t-32 72.5t-8.5 84v371q0 33 -1 61.5t-7 51t-21.5 39t-45.5 26.5q-16 4 -24.5 10 t-8.5 23z" />
<glyph unicode="|" horiz-adv-x="471" d="M141 -195v1581q0 39 45 39h103q25 0 33 -11t8 -28v-1581q0 -16 -8.5 -27t-32.5 -11h-103q-45 0 -45 38z" />
<glyph unicode="}" horiz-adv-x="536" d="M33 -96q0 20 10 25t29 8q70 6 87 24.5t17 63.5v340q0 37 2 71.5t12.5 65t33 57.5t63.5 47v6q-35 16 -56.5 46t-34 64t-16.5 68.5t-4 63.5v326q0 43 -17.5 65.5t-86.5 26.5q-18 0 -28.5 6t-10.5 27v88q0 29 35 37q23 4 56.5 7t61.5 3q57 0 95 -20.5t61 -53.5t32 -75t9 -83 v-340v-65.5t7 -54t23.5 -41t47.5 -27.5q31 -8 31 -35v-65q0 -16 -8.5 -22.5t-24.5 -10.5q-31 -10 -46.5 -26.5t-21.5 -39t-7 -51.5t-1 -61v-371q0 -43 -8 -84t-32 -72.5t-63.5 -51t-101.5 -19.5q-20 0 -50 2t-60 12q-35 10 -35 37v82z" />
<glyph unicode="~" horiz-adv-x="1024" d="M119 561q20 55 49 92t61.5 58.5t67.5 31t65 9.5q51 0 100.5 -18.5t98.5 -41.5q41 -18 75 -33.5t62 -15.5q35 0 56.5 21.5t48.5 60.5q8 14 19.5 18.5t35.5 -12.5l53 -37q16 -12 19.5 -20t-0.5 -21q-45 -104 -107.5 -146t-140.5 -42q-41 0 -84 16.5t-90 38.5q-43 23 -83 38 t-69 15q-31 0 -53 -20.5t-59 -65.5q-10 -12 -19.5 -17t-38.5 15l-49 31q-10 8 -17 17.5t-1 27.5z" />
<glyph unicode="&#xa1;" horiz-adv-x="495" d="M129 885q0 25 3 46t15.5 38.5t36 28t64.5 10.5q76 0 98.5 -37t22.5 -86q0 -53 -22.5 -85t-98.5 -32q-72 0 -95.5 34t-23.5 83zM145 -334l23 918q0 20 7 28.5t30 8.5h94q35 0 35 -37l24 -918q0 -39 -36 -39h-138q-41 0 -39 39z" />
<glyph unicode="&#xa2;" d="M164 504q0 94 14.5 187t55 167t117.5 120t202 46q12 0 24.5 -1t26.5 -1l-26 -201h-3q-98 0 -137 -71.5t-39 -239.5q0 -145 21.5 -218t75.5 -95l-27 -207q-98 12 -158.5 58t-93.5 115.5t-43 157t-10 183.5zM434 -291l35 281q39 -6 84 -6h31l-35 -279q-2 -14 -5 -23.5 t-20 -7.5l-67 9q-25 4 -23 26zM496 197l82 624q47 0 112 -6l-80 -633h-37q-47 0 -77 15zM584 -16l26 198q39 2 91.5 5.5t107.5 13.5q23 4 37 0t18 -29l15 -78q6 -39 -27 -57q-45 -25 -120 -37t-148 -16zM604 1022l37 276q2 14 7 21.5t22 3.5l57 -6q12 -2 19.5 -8t3.5 -25 l-35 -276q-29 4 -56.5 8t-54.5 6zM690 815l25 193q37 -8 71.5 -18.5t63.5 -22.5q31 -12 22 -49l-14 -84q-6 -35 -49 -31z" />
<glyph unicode="&#xa3;" d="M100 35v94q0 12 5.5 28.5t23.5 30.5q43 31 63.5 82.5t28.5 108.5t8 114.5v102.5h-71q-29 0 -38 8t-9 31v102q0 20 9 27.5t36 7.5h71q-2 33 -2 72v74q0 98 14.5 181t54.5 142t109.5 92t180.5 33q66 0 155.5 -12.5t155.5 -40.5q18 -10 29.5 -21.5t3.5 -42.5l-21 -84 q-8 -33 -51 -26q-66 10 -132.5 16t-109.5 6q-55 0 -86.5 -21.5t-49 -61.5t-21.5 -94t-4 -120v-46t2 -46h274q27 0 36 -7t9 -28v-102q0 -23 -9 -31t-36 -8h-272q-2 -43 -3 -99.5t-5.5 -112.5t-15.5 -106.5t-32 -80.5h469q29 0 37 -8.5t8 -30.5v-125q0 -23 -9 -28t-38 -5h-721 q-47 0 -47 35z" />
<glyph unicode="&#xa4;" d="M93 211.5q1 11.5 18 28.5l104 102q-35 53 -47 114.5t-12 102.5q0 33 11 88t42 109l-98 98q-16 16 -16.5 26.5t14.5 24.5l65 64q18 16 27.5 15t25.5 -15l92 -95q35 23 83.5 36.5t109.5 15.5q123 0 203 -56l106 107q16 16 27.5 16t23.5 -14l68 -68q16 -16 15 -25t-17 -26 l-109 -108q27 -45 38.5 -94.5t11.5 -90.5t-12.5 -98t-43.5 -111l111 -110q16 -14 19 -25.5t-13 -27.5l-63 -66q-25 -27 -54 2l-112 113q-41 -23 -90.5 -37t-108.5 -12q-55 0 -98 11t-78 27l-111 -106q-16 -16 -26.5 -19.5t-26.5 13.5l-70 69q-10 10 -9 21.5zM326 563 q0 -98 49 -152.5t139 -54.5q96 0 148.5 58.5t52.5 148.5q0 96 -52.5 151.5t-148.5 55.5q-90 0 -139 -55.5t-49 -151.5z" />
<glyph unicode="&#xa5;" d="M78 1319q-6 16 2 27.5t29 11.5h149q29 0 40 -7.5t19 -27.5l201 -522h10l207 520q8 20 20.5 28.5t41.5 8.5h143q27 0 33 -12.5t-2 -28.5l-303 -664h229q20 0 26.5 -6t6.5 -24v-74q0 -14 -6 -21.5t-27 -7.5h-258v-86h258q20 0 26.5 -6t6.5 -25v-73q0 -14 -5 -20.5t-28 -6.5 h-258v-262q0 -18 -10.5 -29.5t-38.5 -11.5h-133q-49 0 -49 41v262h-263q-33 0 -32 29v76q0 27 34 26h261v86h-263q-33 0 -32 29v76q0 29 34 28h228z" />
<glyph unicode="&#xa6;" horiz-adv-x="471" d="M145 -195v740q0 39 45 39h103q25 0 34 -11.5t9 -27.5v-740q0 -16 -9.5 -27t-33.5 -11h-103q-45 0 -45 38zM145 709v671q0 39 45 39h103q25 0 34 -10t9 -29v-671q0 -16 -9.5 -27.5t-33.5 -11.5h-103q-45 0 -45 39z" />
<glyph unicode="&#xa7;" horiz-adv-x="813" d="M38 -217.5q-5 10.5 1 27.5l22 69q10 29 29 31t49 -8q70 -20 124 -25.5t99 -5.5q29 0 61 7t57.5 24.5t43 46t17.5 74.5q0 39 -17.5 66.5t-47.5 50t-65.5 41t-72.5 36.5q-41 20 -89 46t-91 62.5t-72 88t-29 125.5q0 59 27 137t86 141q-59 51 -81.5 109.5t-22.5 128.5 q0 86 33.5 146.5t87 99t119.5 56t132 17.5q39 0 83 -5t84 -15.5t75 -23.5t55 -27q29 -18 19 -54l-21 -69q-8 -25 -23.5 -30t-43.5 3q-55 14 -117 24.5t-96 10.5q-76 0 -125 -32t-49 -95q0 -29 10 -51.5t27.5 -41t39 -34.5t41.5 -29q59 -37 124 -67.5t119 -70.5t89 -94.5 t33 -135.5q0 -72 -26.5 -141.5t-86.5 -135.5q49 -53 77 -111.5t28 -123.5q0 -102 -41 -169t-100.5 -106t-127 -54t-125.5 -15q-41 0 -85 7t-86 18t-76.5 25.5t-57.5 30.5q-12 10 -17 20.5zM266 573q0 -39 18.5 -68.5t50.5 -54t75 -46t90 -42.5q25 35 38 68t13 72 q0 43 -21.5 74.5t-56.5 57t-75 46t-76 39.5q-25 -33 -40.5 -70t-15.5 -76z" />
<glyph unicode="&#xa8;" horiz-adv-x="917" d="M203 1262q0 47 22.5 77.5t89.5 30.5q68 0 89.5 -29.5t21.5 -78.5t-20.5 -83t-90.5 -34q-37 0 -59.5 9t-34.5 25.5t-15 37t-3 45.5zM557 1262q0 47 22.5 77.5t88.5 30.5q72 0 92 -29.5t20 -78.5t-20 -83t-92 -34q-74 0 -92.5 34.5t-18.5 82.5z" />
<glyph unicode="&#xa9;" horiz-adv-x="1601" d="M88 686q0 147 55.5 276.5t152.5 224.5t226 150.5t277 55.5q152 0 282.5 -55.5t227 -150.5t152 -224t55.5 -277q0 -147 -56.5 -275t-154 -223.5t-228.5 -149.5t-278 -54t-276.5 54t-226.5 149.5t-152.5 223.5t-55.5 275zM219 686q0 -119 46 -224.5t124 -184t183.5 -125 t226.5 -46.5t227.5 46.5t185 125t124.5 184t46 224.5q0 121 -46 227.5t-124.5 185.5t-185 125t-227.5 46t-226.5 -46t-183.5 -125t-124 -185.5t-46 -227.5zM496 670q0 78 11 153.5t44 135t93.5 96.5t158.5 37q53 0 111.5 -8.5t111.5 -30.5q29 -16 23 -45l-9 -54 q-4 -16 -16 -21t-29 -1q-45 10 -95 13t-83 3q-88 0 -121.5 -65.5t-33.5 -206.5q0 -80 7 -135.5t25.5 -88t48 -47t74.5 -14.5q35 0 82 3t107 14q16 2 25 -2.5t13 -22.5l11 -49q6 -33 -23 -45q-45 -20 -107.5 -30.5t-121.5 -10.5q-98 0 -158.5 34.5t-93.5 93t-44 134.5 t-11 160z" />
<glyph unicode="&#xaa;" horiz-adv-x="677" d="M37 680q0 125 64.5 176t187.5 51h131v27q0 49 -24.5 71.5t-96.5 22.5q-70 0 -149 -12q-23 -4 -37.5 -2t-18.5 24l-6 52q-4 14 2 28.5t33 24.5q43 16 106.5 24.5t108.5 8.5q86 0 137 -18.5t79 -51.5t36 -81t8 -105v-240q0 -41 12.5 -49t24.5 -10q16 -4 23.5 -9.5 t7.5 -21.5v-62q0 -12 -8.5 -20t-34.5 -14q-16 -4 -34 -6.5t-34 -2.5q-41 -2 -73.5 14.5t-47.5 57.5q-39 -35 -92 -55.5t-113 -20.5q-109 0 -149.5 55.5t-42.5 143.5zM215 688q0 -39 14.5 -53t46.5 -14q33 0 73 17t69 36v112h-121q-39 0 -60.5 -21.5t-21.5 -76.5z" />
<glyph unicode="&#xab;" horiz-adv-x="868" d="M52.5 389q-3.5 17 13.5 37l178 256q16 23 29.5 32t48.5 9h133q18 0 22 -11.5t-6 -27.5l-207 -293l215 -301q8 -10 4 -19.5t-18 -9.5h-148q-33 0 -45 10.5t-22 20.5l-184 266q-10 14 -13.5 31zM385 389q-2 17 14 37l179 256q16 23 29.5 32t47.5 9h133q18 0 22.5 -11.5 t-5.5 -27.5l-207 -293l213 -301q10 -10 5 -19.5t-17 -9.5h-148q-33 0 -45 10.5t-22 20.5l-187 266q-10 14 -12 31z" />
<glyph unicode="&#xac;" horiz-adv-x="1024" d="M129 623v98q0 39 39 39h688q23 0 31 -8.5t8 -28.5v-447q0 -35 -39 -34h-104q-37 0 -37 34v312h-547q-23 0 -31 9t-8 26z" />
<glyph unicode="&#xad;" horiz-adv-x="692" d="M45 604v107q0 35 39 34h524q39 0 39 -34v-107q0 -33 -39 -33h-524q-39 0 -39 33z" />
<glyph unicode="&#xae;" horiz-adv-x="1034" d="M68 1044q0 94 34.5 175t96 141.5t143.5 95.5t176 35t177 -35t143.5 -95.5t95.5 -141t35 -175.5q0 -94 -35 -175t-96.5 -141t-143.5 -95t-176 -35t-176 35t-143.5 95t-96 141t-34.5 175zM154 1044q0 -76 28.5 -142t77.5 -115.5t115.5 -78t142.5 -28.5t141.5 28.5t114.5 78 t78 116t29 141.5q0 74 -29 140.5t-78 116t-114.5 78t-141.5 28.5t-142.5 -28.5t-115.5 -78t-77.5 -116t-28.5 -140.5zM360 805v477q0 20 21 21h166q29 0 57.5 -9.5t51 -28t37 -48t14.5 -70.5q0 -43 -19.5 -84t-69.5 -62l97 -194q14 -23 -13 -23h-71q-10 0 -17.5 3.5 t-11.5 13.5l-84 182h-61v-176q0 -10 -1 -16.5t-14 -6.5h-65q-16 0 -17 21zM457 1073h71q27 0 52.5 13.5t25.5 60.5q0 37 -22.5 51t-55.5 14h-71v-139z" />
<glyph unicode="&#xaf;" horiz-adv-x="917" d="M199 1198v109q0 20 10 26t29 6h495q23 0 31 -6t8 -26v-109q0 -18 -8 -26.5t-31 -8.5h-495q-39 0 -39 35z" />
<glyph unicode="&#xb0;" horiz-adv-x="663" d="M70 1096q0 51 21.5 98t58 82t86 56.5t106.5 21.5q55 0 104.5 -21.5t84 -56.5t55 -82t20.5 -98q0 -53 -20.5 -100.5t-55 -82t-84 -54t-104.5 -19.5q-129 0 -200.5 73.5t-71.5 182.5zM217 1092q0 -51 34 -87t87 -36t86 35.5t33 87.5q0 55 -36 91t-83 36q-49 0 -85 -36 t-36 -91z" />
<glyph unicode="&#xb1;" horiz-adv-x="1024" d="M127 655v105q0 33 37 33h252v280q0 35 39 35h120q37 0 37 -35v-280h244q23 0 31 -7.5t8 -25.5v-105q0 -18 -8 -25t-31 -7h-244v-299q0 -37 -34 -37h-123q-39 0 -39 37v299h-252q-37 0 -37 32zM129 84v94q0 33 39 33h688q39 0 39 -33v-94q0 -35 -39 -35h-688q-39 0 -39 35 z" />
<glyph unicode="&#xb2;" horiz-adv-x="686" d="M37 711v71q0 35 26 62l293 313q29 31 47.5 65.5t18.5 71.5q0 45 -18.5 72t-92.5 27q-51 0 -103 -5.5t-99 -9.5q-23 -4 -34.5 0t-15.5 25l-10 59q-4 16 1 32.5t34 29.5q25 10 57.5 16t64.5 10t60.5 6.5t46.5 2.5q162 0 228.5 -66t66.5 -182q0 -82 -25.5 -140.5 t-86.5 -123.5l-191 -205l2 -4h281q37 0 37 -35v-92q0 -16 -7.5 -25.5t-29.5 -9.5h-510q-41 0 -41 35z" />
<glyph unicode="&#xb3;" horiz-adv-x="686" d="M37 768l10 53q4 18 15.5 26.5t37.5 4.5q53 -8 103.5 -14.5t91.5 -6.5q31 0 58.5 5.5t48 20.5t32.5 46t12 84q0 41 -26.5 57.5t-61.5 22.5l-129 23q-29 6 -39 17t-10 38v47q0 12 4 23.5t19 23.5l145 143l-2 11h-260q-23 0 -29 7t-6 25v91q0 35 35 34h473q29 0 37 -10 t8 -22v-76q0 -37 -35 -70l-139 -139q-2 -2 -2 -4v-6l47 -13q74 -18 116 -69t42 -144q0 -98 -23.5 -162.5t-67.5 -101.5t-105.5 -51t-137.5 -14q-23 0 -55.5 3t-66.5 9t-66.5 14t-53.5 21q-31 16 -20 53z" />
<glyph unicode="&#xb4;" horiz-adv-x="917" d="M408 1198l149 315q14 27 47 9l117 -66q16 -10 17 -22.5t-9 -22.5q-12 -16 -39.5 -56t-57.5 -85t-57.5 -85t-39.5 -59q-12 -14 -23.5 -15t-28.5 9l-67 37q-23 10 -8 41z" />
<glyph unicode="&#xb5;" horiz-adv-x="946" d="M78 -334v1297q0 23 9 32t36 9h137q27 0 36 -10.5t9 -30.5v-611q0 -96 27.5 -127.5t85.5 -31.5q23 0 53.5 10t62 23.5t60.5 28.5t47 28v680q0 20 9 30.5t38 10.5h133q47 0 47 -41v-922q0 -41 -47 -41h-133q-29 0 -38 11.5t-9 29.5v43l-10 2q-35 -27 -89.5 -53.5 t-113.5 -30.5q-68 -10 -123 2v-338q0 -18 -8 -30.5t-39 -12.5h-135q-29 0 -37 10.5t-8 32.5z" />
<glyph unicode="&#xb6;" horiz-adv-x="968" d="M35 942q0 100 27.5 178t79 131.5t122 80t154.5 26.5h471q45 0 45 -39v-113q0 -41 -37 -41h-53v-1329q0 -25 -11.5 -33t-33.5 -8h-94q-23 0 -34.5 8.5t-11.5 32.5v1331h-147v-1331q0 -25 -11.5 -33t-33.5 -8h-92q-25 0 -36 8.5t-11 32.5v764q-72 2 -126.5 33t-91 79 t-56 108.5t-19.5 121.5z" />
<glyph unicode="&#xb7;" horiz-adv-x="378" d="M68 532q0 53 24.5 88t95.5 35q74 0 97.5 -34t23.5 -89q0 -49 -22.5 -86.5t-98.5 -37.5q-39 0 -62.5 10t-36.5 27.5t-17 40t-4 46.5z" />
<glyph unicode="&#xb8;" horiz-adv-x="757" d="M240 -377l10 53q4 10 9 14.5t24 0.5q25 -4 56.5 -7t51.5 -3q33 0 59.5 13t26.5 60q0 39 -26.5 50.5t-88.5 15.5q-43 2 -30 49l47 151q4 6 7 11.5t17 5.5h70q14 0 16.5 -5t-0.5 -12l-36 -110q53 -4 86.5 -17.5t52 -34t26 -46t7.5 -54.5q0 -86 -56.5 -135t-167.5 -49 q-29 0 -73.5 5t-75.5 20q-16 6 -12 24z" />
<glyph unicode="&#xb9;" horiz-adv-x="624" d="M78 1395v53q0 14 5 23.5t26 19.5l92 41q16 8 35.5 13t42.5 5h88q29 0 35 -9t6 -25v-680h112q16 0 24.5 -6.5t8.5 -26.5v-92q0 -18 -6 -25.5t-27 -7.5h-403q-18 0 -25.5 6t-7.5 27v92q0 33 33 33h102v528h-108q-18 0 -25.5 6t-7.5 25z" />
<glyph unicode="&#xba;" horiz-adv-x="645" d="M41 838q0 47 8 105t37 109.5t84 86.5t152 35q94 0 150 -30t87 -78t40 -108.5t9 -119.5t-7 -122t-34.5 -115t-86 -86t-158.5 -34t-156.5 34t-84.5 86t-34 114.5t-6 122.5zM219 827q0 -98 19.5 -144t83.5 -46q66 0 87 46t21 144t-20.5 144.5t-87.5 46.5q-63 0 -83 -47 t-20 -144z" />
<glyph unicode="&#xbb;" horiz-adv-x="866" d="M55.5 70.5q-4.5 9.5 3.5 19.5l213 301l-204 293q-12 16 -7 27.5t21 11.5h135q35 0 48.5 -9t29.5 -32l176 -256q16 -20 14 -36.5t-12 -31.5l-186 -266q-8 -10 -21.5 -20.5t-46.5 -10.5h-147q-12 0 -16.5 9.5zM388.5 70.5q-5.5 9.5 4.5 19.5l213 301l-207 293 q-10 16 -6 27.5t23 11.5h133q35 0 48 -9t30 -32l178 -256q16 -20 14 -36.5t-12 -31.5l-186 -266q-8 -10 -21.5 -20.5t-46.5 -10.5h-147q-12 0 -17.5 9.5z" />
<glyph unicode="&#xbc;" horiz-adv-x="1640" d="M111 1210v54q0 14 5 23t25 20l92 41q16 8 36 13t42 5h88q29 0 35 -9t6 -26v-680h113q16 0 24.5 -6t8.5 -27v-92q0 -18 -6.5 -25t-26.5 -7h-403q-18 0 -25.5 6t-7.5 26v92q0 33 33 33h102v529h-109q-18 0 -25 6t-7 24zM475 -14l488 1413q8 16 15 25.5t28 9.5h102 q14 0 22.5 -7.5t2.5 -25.5l-490 -1421q-8 -27 -37 -27h-104q-16 0 -24.5 7t-2.5 26zM860 240v61q0 23 5 36t16 30l350 475q12 16 21.5 22t35.5 6h94q41 0 41 -30v-478h66q23 0 29 -8t6 -26v-88q0 -16 -6.5 -24.5t-28.5 -8.5h-66v-174q0 -23 -8 -28t-31 -5h-102 q-20 0 -29.5 4t-9.5 27v176h-340q-43 0 -43 33zM1049 360h194v267z" />
<glyph unicode="&#xbd;" horiz-adv-x="1640" d="M88 1210v54q0 14 5 23t26 20l92 41q16 8 35.5 13t42.5 5h88q29 0 35 -9t6 -26v-680h112q16 0 24.5 -6t8.5 -27v-92q0 -18 -6 -25t-27 -7h-403q-18 0 -25.5 6t-7.5 26v92q0 33 33 33h102v529h-108q-18 0 -25.5 6t-7.5 24zM444 -14l488 1413q8 16 15 25.5t28 9.5h102 q14 0 22.5 -7.5t2.5 -25.5l-490 -1421q-8 -27 -37 -27h-104q-16 0 -24.5 7t-2.5 26zM965 33v71q0 39 26 62l293 313q29 31 47.5 66t18.5 73q0 43 -18.5 70t-92.5 27q-51 0 -103.5 -5t-99.5 -10q-23 -2 -34 1.5t-15 23.5l-10 59q-4 16 1 33t34 29q25 10 57.5 17t64 11.5 t60.5 6.5t47 2q162 0 228.5 -66.5t66.5 -183.5q0 -82 -25.5 -140.5t-87.5 -123.5l-190 -205l2 -4h281q37 0 36 -35v-92q0 -16 -7 -25.5t-29 -9.5h-510q-41 0 -41 35z" />
<glyph unicode="&#xbe;" horiz-adv-x="1640" d="M55 584l11 53q4 18 15 26.5t38 4.5q53 -8 103 -14.5t91 -6.5q31 0 58.5 5t48 20.5t33 46.5t12.5 84q0 41 -26.5 57.5t-61.5 22.5l-129 22q-29 6 -39 17.5t-10 38.5v47q0 12 4 23t18 24l146 143l-2 10h-261q-23 0 -28.5 7.5t-5.5 25.5v90q0 35 34 35h474q29 0 37 -10 t8 -23v-76q0 -37 -35 -69l-139 -139q-2 -2 -3 -5v-6l48 -12q74 -18 115.5 -69.5t41.5 -143.5q0 -98 -23.5 -162.5t-67.5 -101.5t-105.5 -51.5t-137.5 -14.5q-23 0 -55.5 3t-66 9.5t-66.5 14.5t-53 20q-31 16 -21 54zM498 -14l487 1413q8 16 15.5 25.5t27.5 9.5h102 q14 0 22.5 -7.5t2.5 -25.5l-489 -1421q-8 -27 -37 -27h-105q-16 0 -24 7t-2 26zM905 240v61q0 23 5 36t16 30l350 475q12 16 21.5 22t35.5 6h94q41 0 41 -30v-478h66q23 0 29 -8t6 -26v-88q0 -16 -6.5 -24.5t-28.5 -8.5h-66v-174q0 -23 -8 -28t-30 -5h-103q-20 0 -29.5 4 t-9.5 27v176h-340q-43 0 -43 33zM1094 360h194v267z" />
<glyph unicode="&#xbf;" horiz-adv-x="696" d="M27 -66q0 51 14 93.5t36.5 75t49.5 58t53 48.5q68 57 110 119.5t42 167.5v42.5t-2 53.5q0 18 6 29.5t33 11.5h116q25 0 34 -7.5t13 -29.5q4 -35 5.5 -66.5t1.5 -54.5q0 -72 -16.5 -127t-45 -102t-66.5 -88t-83 -84q-33 -29 -52.5 -55.5t-19.5 -67.5q0 -76 39 -107.5 t125 -31.5q41 0 88 4t94 10q35 4 43 -4t12 -27l11 -84q4 -18 -3.5 -31.5t-33.5 -23.5q-59 -29 -130 -37t-110 -8q-182 0 -273 83.5t-91 239.5zM303 885q0 25 4 47t17.5 38.5t37 27t62.5 10.5q41 0 64.5 -10.5t36 -28t16.5 -39t4 -45.5q0 -51 -24.5 -86t-96.5 -35 q-74 0 -97.5 34t-23.5 87z" />
<glyph unicode="&#xc0;" horiz-adv-x="1056" d="M18 43l361 1272q6 23 17.5 33t41.5 10h172q31 0 42.5 -11.5t17.5 -31.5l360 -1274q4 -16 0 -28.5t-24 -12.5h-175q-29 0 -38 10t-15 33l-73 295h-371l-74 -295q-8 -27 -20.5 -35t-36.5 -8h-154q-43 0 -31 43zM207 1659l72 113q20 33 45 14l282 -205q25 -20 12 -41 l-43 -63q-10 -16 -20 -22.5t-27 1.5l-307 158q-33 14 -14 45zM381 528h276l-77 332q-14 59 -27.5 118.5t-24.5 121.5h-8q-4 -16 -11 -48t-14.5 -67t-14.5 -67.5t-13 -53.5q-4 -14 -16.5 -63t-26.5 -104.5t-26.5 -104.5t-16.5 -64z" />
<glyph unicode="&#xc1;" horiz-adv-x="1056" d="M18 43l361 1272q6 23 17.5 33t41.5 10h172q31 0 42.5 -11.5t17.5 -31.5l360 -1274q4 -16 0 -28.5t-24 -12.5h-175q-29 0 -38 10t-15 33l-73 295h-371l-74 -295q-8 -27 -20.5 -35t-36.5 -8h-154q-43 0 -31 43zM381 528h276l-77 332q-14 59 -27.5 118.5t-24.5 121.5h-8 q-4 -16 -11 -48t-14.5 -67t-14.5 -67.5t-13 -53.5q-4 -14 -16.5 -63t-26.5 -104.5t-26.5 -104.5t-16.5 -64zM414 1538q-12 20 12 41l283 205q25 18 45 -15l71 -112q18 -31 -14 -45l-307 -158q-16 -8 -26.5 -2t-20.5 23z" />
<glyph unicode="&#xc2;" horiz-adv-x="1056" d="M18 43l361 1272q6 23 17.5 33t41.5 10h172q31 0 42.5 -11.5t17.5 -31.5l360 -1274q4 -16 0 -28.5t-24 -12.5h-175q-29 0 -38 10t-15 33l-73 295h-371l-74 -295q-8 -27 -20.5 -35t-36.5 -8h-154q-43 0 -31 43zM201 1491q-25 23 2 49l205 217q12 12 23 16.5t34 4.5h100 q29 0 42.5 -5.5t23.5 -17.5l200 -213q10 -10 11.5 -21.5t-8.5 -21.5l-50 -53q-25 -25 -57 6l-213 162l-213 -172q-12 -10 -26.5 -14.5t-24.5 12.5zM381 528h276l-77 332q-14 59 -27.5 118.5t-24.5 121.5h-8q-4 -16 -11 -48t-14.5 -67t-14.5 -67.5t-13 -53.5 q-4 -14 -16.5 -63t-26.5 -104.5t-26.5 -104.5t-16.5 -64z" />
<glyph unicode="&#xc3;" horiz-adv-x="1056" d="M18 43l361 1272q6 23 17.5 33t41.5 10h172q31 0 42.5 -11.5t17.5 -31.5l360 -1274q4 -16 0 -28.5t-24 -12.5h-175q-29 0 -38 10t-15 33l-73 295h-371l-74 -295q-8 -27 -20.5 -35t-36.5 -8h-154q-43 0 -31 43zM177.5 1537q-1.5 11 2.5 22q41 109 98.5 148.5t110.5 39.5 q37 0 76 -15.5t74 -33.5q37 -18 69.5 -35.5t55.5 -17.5q27 0 43 16t38 51q10 16 18.5 23.5t29.5 -2.5l57 -29q18 -10 20 -21.5t-4 -27.5q-35 -100 -84.5 -141t-115.5 -41q-33 0 -72 16t-76 35q-39 18 -73.5 33.5t-57.5 15.5q-16 0 -38.5 -11.5t-51.5 -62.5 q-10 -16 -17.5 -19t-29.5 7l-55 29q-16 10 -17.5 21zM381 528h276l-77 332q-14 59 -27.5 118.5t-24.5 121.5h-8q-4 -16 -11 -48t-14.5 -67t-14.5 -67.5t-13 -53.5q-4 -14 -16.5 -63t-26.5 -104.5t-26.5 -104.5t-16.5 -64z" />
<glyph unicode="&#xc4;" horiz-adv-x="1056" d="M18 43l361 1272q6 23 17.5 33t41.5 10h172q31 0 42.5 -11.5t17.5 -31.5l360 -1274q4 -16 0 -28.5t-24 -12.5h-175q-29 0 -38 10t-15 33l-73 295h-371l-74 -295q-8 -27 -20.5 -35t-36.5 -8h-154q-43 0 -31 43zM227 1606q0 47 21.5 77.5t89.5 30.5q72 0 91.5 -28.5 t19.5 -79.5q0 -49 -20.5 -83t-90.5 -34q-74 0 -92.5 35t-18.5 82zM381 528h276l-77 332q-14 59 -27.5 118.5t-24.5 121.5h-8q-4 -16 -11 -48t-14.5 -67t-14.5 -67.5t-13 -53.5q-4 -14 -16.5 -63t-26.5 -104.5t-26.5 -104.5t-16.5 -64zM575 1606q0 47 21.5 77.5t87.5 30.5 q70 0 90.5 -28.5t20.5 -79.5q0 -49 -19.5 -83t-91.5 -34q-37 0 -58.5 9t-32.5 25.5t-14.5 37t-3.5 45.5z" />
<glyph unicode="&#xc5;" horiz-adv-x="1056" d="M18 43l361 1272q6 23 17.5 33t41.5 10h172q31 0 42.5 -11.5t17.5 -31.5l360 -1274q4 -16 0 -28.5t-24 -12.5h-175q-29 0 -38 10t-15 33l-73 295h-371l-74 -295q-8 -27 -20.5 -35t-36.5 -8h-154q-43 0 -31 43zM307 1616q0 45 17.5 84t47 66.5t69.5 43t85 15.5t85 -16.5 t68 -45t44 -66.5t16 -81t-16 -80t-44 -65.5t-68 -45t-85 -16.5t-85 15.5t-69.5 42t-47 64.5t-17.5 85zM381 528h276l-77 332q-14 59 -27.5 118.5t-24.5 121.5h-8q-4 -16 -11 -48t-14.5 -67t-14.5 -67.5t-13 -53.5q-4 -14 -16.5 -63t-26.5 -104.5t-26.5 -104.5t-16.5 -64z M440 1616q0 -43 22.5 -69.5t63.5 -26.5q39 0 63.5 27.5t24.5 68.5q0 35 -24.5 65.5t-63.5 30.5q-37 0 -61.5 -30.5t-24.5 -65.5z" />
<glyph unicode="&#xc6;" horiz-adv-x="1583" d="M10 41l621 1278q12 23 24.5 31t46.5 8h760q41 0 41 -37v-129q0 -18 -8 -27.5t-35 -9.5h-450v-342h401q39 0 39 -35v-129q0 -18 -6 -27.5t-33 -9.5h-401v-409h477q39 0 39 -37v-129q0 -18 -7.5 -27.5t-33.5 -9.5h-668q-25 0 -34 9t-9 28q-2 25 -2 107.5v193.5h-362 l-146 -299q-10 -23 -26.5 -31t-40.5 -8h-164q-43 0 -23 41zM492 528h280v580h-10z" />
<glyph unicode="&#xc7;" horiz-adv-x="1003" d="M94 670q0 131 18.5 257t73 225t151.5 159.5t255 60.5q72 0 168 -13t168 -44q47 -23 41 -66l-17 -84q-4 -20 -16 -27.5t-43 -2.5q-35 4 -76 7t-81 6t-74.5 5t-57.5 2q-86 0 -137 -39t-79 -104.5t-36 -153.5t-8 -186q0 -100 10.5 -186.5t38 -150t78.5 -99t133 -35.5 q59 0 134 5t155 15q33 4 44 -5t17 -28l17 -77q8 -47 -39 -68q-33 -14 -75 -25.5t-86 -18.5t-88 -11t-81 -4l-24 -74q53 -4 86.5 -17.5t52 -34t26 -46t7.5 -54.5q0 -86 -56.5 -135t-167.5 -49q-27 0 -70.5 5t-76.5 18q-16 10 -14 26l12 53q4 10 8 14.5t23 0.5q27 -4 57.5 -7 t48.5 -3q35 0 61.5 13t26.5 60q0 41 -26.5 51.5t-88.5 14.5q-43 2 -30 49l39 119q-123 18 -202 81.5t-123 156.5t-60.5 208t-16.5 236z" />
<glyph unicode="&#xc8;" horiz-adv-x="942" d="M106 37v1282q0 39 46 39h667q41 0 41 -37v-129q0 -18 -6 -27.5t-33 -9.5h-477v-342h424q41 0 41 -35v-129q0 -18 -7 -27.5t-34 -9.5h-424v-409h504q23 0 30 -9.5t7 -27.5v-129q0 -18 -7.5 -27.5t-33.5 -9.5h-692q-45 0 -46 37zM195 1659l71 113q20 33 45 14l283 -205 q25 -20 12 -41l-43 -63q-10 -16 -20.5 -22.5t-26.5 1.5l-307 158q-33 14 -14 45z" />
<glyph unicode="&#xc9;" horiz-adv-x="942" d="M106 37v1282q0 39 46 39h667q41 0 41 -37v-129q0 -18 -6 -27.5t-33 -9.5h-477v-342h424q41 0 41 -35v-129q0 -18 -7 -27.5t-34 -9.5h-424v-409h504q23 0 30 -9.5t7 -27.5v-129q0 -18 -7.5 -27.5t-33.5 -9.5h-692q-45 0 -46 37zM338 1538q-12 20 12 41l283 205 q25 18 45 -15l72 -112q18 -31 -15 -45l-307 -158q-16 -8 -26.5 -2t-20.5 23z" />
<glyph unicode="&#xca;" horiz-adv-x="942" d="M106 37v1282q0 39 46 39h667q41 0 41 -37v-129q0 -18 -6 -27.5t-33 -9.5h-477v-342h424q41 0 41 -35v-129q0 -18 -7 -27.5t-34 -9.5h-424v-409h504q23 0 30 -9.5t7 -27.5v-129q0 -18 -7.5 -27.5t-33.5 -9.5h-692q-45 0 -46 37zM174 1491q-25 23 2 49l205 217 q12 12 23.5 16.5t33.5 4.5h101q29 0 42 -5.5t23 -17.5l201 -213q10 -10 11 -21.5t-9 -21.5l-49 -53q-25 -25 -58 6l-213 162l-213 -172q-12 -10 -26.5 -14.5t-24.5 12.5z" />
<glyph unicode="&#xcb;" horiz-adv-x="942" d="M106 37v1282q0 39 46 39h667q41 0 41 -37v-129q0 -18 -6 -27.5t-33 -9.5h-477v-342h424q41 0 41 -35v-129q0 -18 -7 -27.5t-34 -9.5h-424v-409h504q23 0 30 -9.5t7 -27.5v-129q0 -18 -7.5 -27.5t-33.5 -9.5h-692q-45 0 -46 37zM203 1606q0 47 21.5 77.5t88.5 30.5 q72 0 91.5 -28.5t19.5 -79.5q0 -49 -20.5 -83t-90.5 -34q-74 0 -92 35t-18 82zM551 1606q0 47 21.5 77.5t86.5 30.5q70 0 90.5 -28.5t20.5 -79.5q0 -49 -19.5 -83t-91.5 -34q-37 0 -58 9t-32.5 25.5t-14.5 37t-3 45.5z" />
<glyph unicode="&#xcc;" horiz-adv-x="493" d="M-41 1659l72 113q20 33 45 14l282 -205q25 -20 13 -41l-43 -63q-10 -16 -20.5 -22.5t-26.5 1.5l-308 158q-33 14 -14 45zM127 39v1280q0 39 45 39h150q27 0 35 -10.5t8 -28.5v-1280q0 -16 -8.5 -27.5t-34.5 -11.5h-150q-45 0 -45 39z" />
<glyph unicode="&#xcd;" horiz-adv-x="493" d="M104 1538q-12 20 13 41l282 205q25 18 45 -15l72 -112q18 -31 -14 -45l-307 -158q-16 -8 -26.5 -2t-21.5 23zM127 39v1280q0 39 45 39h150q27 0 35 -10.5t8 -28.5v-1280q0 -16 -8.5 -27.5t-34.5 -11.5h-150q-45 0 -45 39z" />
<glyph unicode="&#xce;" horiz-adv-x="493" d="M-63 1491q-25 23 2 49l204 217q12 12 23.5 16.5t34.5 4.5h100q29 0 42 -5.5t24 -17.5l200 -213q10 -10 11.5 -21.5t-9.5 -21.5l-49 -53q-25 -25 -57 6l-213 162l-213 -172q-12 -10 -26.5 -14.5t-24.5 12.5zM127 39v1280q0 39 45 39h150q27 0 35 -10.5t8 -28.5v-1280 q0 -16 -8.5 -27.5t-34.5 -11.5h-150q-45 0 -45 39z" />
<glyph unicode="&#xcf;" horiz-adv-x="493" d="M-33 1606q0 47 21.5 77.5t89.5 30.5q72 0 91 -28.5t19 -79.5q0 -49 -20 -83t-90 -34q-74 0 -92.5 35t-18.5 82zM127 39v1280q0 39 45 39h150q27 0 35 -10.5t8 -28.5v-1280q0 -16 -8.5 -27.5t-34.5 -11.5h-150q-45 0 -45 39zM315 1606q0 47 21.5 77.5t87.5 30.5 q70 0 90.5 -28.5t20.5 -79.5q0 -49 -19.5 -83t-91.5 -34q-37 0 -58.5 9t-32.5 25.5t-14.5 37t-3.5 45.5z" />
<glyph unicode="&#xd0;" horiz-adv-x="1134" d="M10 639v96q0 35 35 35h68v549q0 18 8 28.5t35 10.5h344q166 0 271.5 -54.5t164.5 -146.5t81.5 -215t22.5 -260q0 -139 -21.5 -263t-80.5 -217t-164.5 -147.5t-273.5 -54.5h-340q-29 0 -38 10t-9 29v569h-68q-35 0 -35 31zM346 205h119q66 0 126 17.5t106 67.5t73 140 t27 236q0 143 -22.5 237t-62.5 150.5t-96.5 79t-123.5 22.5h-146v-385h176q35 0 35 -33v-96q0 -16 -6 -24.5t-29 -8.5h-176v-403z" />
<glyph unicode="&#xd1;" horiz-adv-x="1153" d="M109 39v1284q0 35 43 35h118q33 0 45.5 -10.5t22.5 -26.5l319 -567q47 -86 89 -165t65 -132h2q2 0 2 1t2 1v860q0 18 7 28.5t34 10.5h146q25 0 32.5 -9.5t7.5 -29.5v-1280q0 -18 -7 -28.5t-31 -10.5h-117q-31 0 -45.5 9t-26.5 32l-301 532q-66 115 -102.5 188t-69.5 138 h-6v-860q0 -16 -7 -27.5t-34 -11.5h-143q-45 0 -45 39zM239 1520.5q-1 11.5 3 21.5q41 109 98 149t111 40q37 0 75.5 -15.5t73.5 -34.5q37 -18 69.5 -35.5t55.5 -17.5q27 0 43 16.5t39 51.5q10 16 18.5 23t28.5 -3l57 -28q18 -10 20.5 -21.5t-3.5 -28.5q-35 -100 -85 -141 t-116 -41q-33 0 -72 16.5t-75 34.5q-39 18 -74 33.5t-57 15.5q-16 0 -39 -11t-52 -62q-10 -16 -17 -19.5t-30 6.5l-55 29q-16 10 -17 21.5z" />
<glyph unicode="&#xd2;" horiz-adv-x="1177" d="M90 698q0 68 5 144t23.5 150.5t51.5 144t88 122t135 84t193 31.5q166 0 265 -58.5t151.5 -153.5t68.5 -217t16 -247t-13 -253t-64.5 -230t-151.5 -167.5t-274 -65.5q-172 0 -271.5 65.5t-148.5 167.5t-61.5 230t-12.5 253zM293 1659l72 113q20 33 45 14l282 -205 q25 -20 13 -41l-43 -63q-10 -16 -20.5 -22.5t-27.5 1.5l-307 158q-33 14 -14 45zM338 678q0 -115 11 -205t39 -153.5t76 -96.5t122 -33q76 0 125 32t78.5 94.5t42 153.5t12.5 208q0 242 -54.5 366.5t-203.5 124.5q-141 0 -194.5 -128t-53.5 -363z" />
<glyph unicode="&#xd3;" horiz-adv-x="1177" d="M90 698q0 68 5 144t23.5 150.5t51.5 144t88 122t135 84t193 31.5q166 0 265 -58.5t151.5 -153.5t68.5 -217t16 -247t-13 -253t-64.5 -230t-151.5 -167.5t-274 -65.5q-172 0 -271.5 65.5t-148.5 167.5t-61.5 230t-12.5 253zM338 678q0 -115 11 -205t39 -153.5t76 -96.5 t122 -33q76 0 125 32t78.5 94.5t42 153.5t12.5 208q0 242 -54.5 366.5t-203.5 124.5q-141 0 -194.5 -128t-53.5 -363zM479 1538q-12 20 13 41l282 205q25 18 45 -15l72 -112q18 -31 -14 -45l-308 -158q-16 -8 -26.5 -2t-20.5 23z" />
<glyph unicode="&#xd4;" horiz-adv-x="1177" d="M90 698q0 68 5 144t23.5 150.5t51.5 144t88 122t135 84t193 31.5q166 0 265 -58.5t151.5 -153.5t68.5 -217t16 -247t-13 -253t-64.5 -230t-151.5 -167.5t-274 -65.5q-172 0 -271.5 65.5t-148.5 167.5t-61.5 230t-12.5 253zM279 1491q-25 23 2 49l204 217q12 12 23.5 16.5 t34.5 4.5h100q29 0 42 -5.5t24 -17.5l200 -213q10 -10 11.5 -21.5t-9.5 -21.5l-49 -53q-25 -25 -57 6l-213 162l-213 -172q-12 -10 -26.5 -14.5t-24.5 12.5zM338 678q0 -115 11 -205t39 -153.5t76 -96.5t122 -33q76 0 125 32t78.5 94.5t42 153.5t12.5 208q0 242 -54.5 366.5 t-203.5 124.5q-141 0 -194.5 -128t-53.5 -363z" />
<glyph unicode="&#xd5;" horiz-adv-x="1177" d="M90 698q0 68 5 144t23.5 150.5t51.5 144t88 122t135 84t193 31.5q166 0 265 -58.5t151.5 -153.5t68.5 -217t16 -247t-13 -253t-64.5 -230t-151.5 -167.5t-274 -65.5q-172 0 -271.5 65.5t-148.5 167.5t-61.5 230t-12.5 253zM237 1545q-1 11 3 22q41 109 98 148.5t111 39.5 q37 0 75.5 -15.5t73.5 -33.5q37 -18 69.5 -35.5t55.5 -17.5q27 0 43 16.5t39 50.5q10 16 18 23.5t29 -2.5l57 -29q18 -10 20.5 -21.5t-3.5 -27.5q-35 -100 -85 -141t-116 -41q-33 0 -72 16t-75 35q-39 18 -74 33.5t-58 15.5q-16 0 -38.5 -11t-51.5 -63q-10 -16 -17 -19 t-30 7l-55 29q-16 10 -17 21zM338 678q0 -115 11 -205t39 -153.5t76 -96.5t122 -33q76 0 125 32t78.5 94.5t42 153.5t12.5 208q0 242 -54.5 366.5t-203.5 124.5q-141 0 -194.5 -128t-53.5 -363z" />
<glyph unicode="&#xd6;" horiz-adv-x="1177" d="M90 698q0 68 5 144t23.5 150.5t51.5 144t88 122t135 84t193 31.5q166 0 265 -58.5t151.5 -153.5t68.5 -217t16 -247t-13 -253t-64.5 -230t-151.5 -167.5t-274 -65.5q-172 0 -271.5 65.5t-148.5 167.5t-61.5 230t-12.5 253zM301 1606q0 47 21.5 77.5t89.5 30.5 q72 0 91 -28.5t19 -79.5q0 -49 -20 -83t-90 -34q-74 0 -92.5 35t-18.5 82zM338 678q0 -115 11 -205t39 -153.5t76 -96.5t122 -33q76 0 125 32t78.5 94.5t42 153.5t12.5 208q0 242 -54.5 366.5t-203.5 124.5q-141 0 -194.5 -128t-53.5 -363zM649 1606q0 47 21.5 77.5 t87.5 30.5q70 0 90 -28.5t20 -79.5q0 -49 -19 -83t-91 -34q-37 0 -58.5 9t-33 25.5t-14.5 37t-3 45.5z" />
<glyph unicode="&#xd7;" horiz-adv-x="1024" d="M161 935.5q-3 12.5 11 27.5l78 67q12 12 23.5 14.5t25.5 -14.5l213 -239l205 233q16 16 30.5 13t36.5 -25l66 -58q20 -23 0 -49l-219 -246l221 -251q10 -10 13 -22.5t-11 -27.5l-78 -67q-12 -12 -23.5 -14.5t-25.5 14.5l-213 239l-211 -241q-10 -12 -23.5 -13.5 t-25.5 11.5l-82 78q-27 20 2 49l221 248l-221 251q-10 10 -13 22.5z" />
<glyph unicode="&#xd8;" horiz-adv-x="1177" d="M90 698q0 68 5 144t23.5 150.5t51.5 144t88 122t135 84t193 31.5q104 0 180 -24.5t131 -65.5l45 74q10 14 18.5 20t26.5 -4l39 -24q16 -10 16 -17.5t-10 -23.5l-61 -101q72 -96 94 -232.5t22 -277.5q0 -125 -13 -253t-64.5 -230t-151.5 -167.5t-274 -65.5 q-102 0 -177 23.5t-128 64.5l-41 -70q-10 -14 -19.5 -20.5t-25.5 6.5l-43 24q-14 10 -13.5 17.5t8.5 21.5l60 96q-39 53 -61.5 119t-35 137.5t-15.5 147.5t-3 149zM338 678q0 -82 5 -150.5t17 -126.5l410 676q-59 92 -184 92q-141 0 -194.5 -127.5t-53.5 -363.5zM408 281 q55 -90 178 -91q76 0 125 32t78.5 94.5t42 153.5t12.5 208q0 168 -25 278z" />
<glyph unicode="&#xd9;" horiz-adv-x="1120" d="M104 479v838q0 23 10.5 32t39.5 9h139q29 0 38 -10.5t9 -30.5v-823q0 -160 51 -229.5t168 -69.5t171 71.5t54 227.5v823q0 23 9.5 32t37.5 9h140q29 0 38 -10.5t9 -30.5v-838q0 -113 -26.5 -205t-83 -156.5t-143.5 -99t-206 -34.5q-125 0 -212 36.5t-140 102t-78 157 t-25 199.5zM287 1659l71 113q20 33 45 14l283 -205q25 -20 12 -41l-43 -63q-10 -16 -20 -22.5t-27 1.5l-307 158q-33 14 -14 45z" />
<glyph unicode="&#xda;" horiz-adv-x="1120" d="M104 479v838q0 23 10.5 32t39.5 9h139q29 0 38 -10.5t9 -30.5v-823q0 -160 51 -229.5t168 -69.5t171 71.5t54 227.5v823q0 23 9.5 32t37.5 9h140q29 0 38 -10.5t9 -30.5v-838q0 -113 -26.5 -205t-83 -156.5t-143.5 -99t-206 -34.5q-125 0 -212 36.5t-140 102t-78 157 t-25 199.5zM436 1538q-12 20 13 41l282 205q25 18 45 -15l72 -112q18 -31 -14 -45l-308 -158q-16 -8 -26.5 -2t-20.5 23z" />
<glyph unicode="&#xdb;" horiz-adv-x="1120" d="M104 479v838q0 23 10.5 32t39.5 9h139q29 0 38 -10.5t9 -30.5v-823q0 -160 51 -229.5t168 -69.5t171 71.5t54 227.5v823q0 23 9.5 32t37.5 9h140q29 0 38 -10.5t9 -30.5v-838q0 -113 -26.5 -205t-83 -156.5t-143.5 -99t-206 -34.5q-125 0 -212 36.5t-140 102t-78 157 t-25 199.5zM254 1491q-25 23 2 49l205 217q12 12 23.5 16.5t33.5 4.5h100q29 0 42.5 -5.5t23.5 -17.5l201 -213q10 -10 11 -21.5t-9 -21.5l-49 -53q-25 -25 -58 6l-213 162l-213 -172q-12 -10 -26.5 -14.5t-24.5 12.5z" />
<glyph unicode="&#xdc;" horiz-adv-x="1120" d="M104 479v838q0 23 10.5 32t39.5 9h139q29 0 38 -10.5t9 -30.5v-823q0 -160 51 -229.5t168 -69.5t171 71.5t54 227.5v823q0 23 9.5 32t37.5 9h140q29 0 38 -10.5t9 -30.5v-838q0 -113 -26.5 -205t-83 -156.5t-143.5 -99t-206 -34.5q-125 0 -212 36.5t-140 102t-78 157 t-25 199.5zM279 1606q0 47 21.5 77.5t88.5 30.5q72 0 91.5 -28.5t19.5 -79.5q0 -49 -20.5 -83t-90.5 -34q-74 0 -92 35t-18 82zM627 1606q0 47 21.5 77.5t86.5 30.5q70 0 90.5 -28.5t20.5 -79.5q0 -49 -19.5 -83t-91.5 -34q-37 0 -58.5 9t-32.5 25.5t-14 37t-3 45.5z" />
<glyph unicode="&#xdd;" horiz-adv-x="1013" d="M18 1319q-8 16 0.5 26.5t22.5 10.5h166q39 0 51 -14.5t35 -65.5l113 -268q29 -66 49 -124.5t43 -113.5h12q18 61 45 123.5t53 122.5l135 301q10 23 21.5 31t42.5 8h160q41 0 26 -37l-375 -764v-518q0 -16 -7 -26.5t-33 -10.5h-148q-27 0 -36 8t-9 29v518zM385 1538 q-12 20 12 41l283 205q25 18 45 -15l72 -112q18 -31 -15 -45l-307 -158q-16 -8 -26.5 -2t-20.5 23z" />
<glyph unicode="&#xde;" horiz-adv-x="964" d="M106 39v1280q0 39 44 39h151q29 0 36 -10.5t7 -28.5v-209h168q92 0 169 -25.5t132 -76t87 -127.5t32 -179q0 -72 -17.5 -146.5t-63.5 -136t-127 -101t-210 -39.5h-170v-240q0 -16 -7 -27.5t-34 -11.5h-151q-45 0 -46 39zM344 475h152q57 0 96 17.5t61.5 47t31.5 69.5 t9 87q0 109 -54 160t-153 51h-143v-432z" />
<glyph unicode="&#xdf;" horiz-adv-x="948" d="M76 33v997q0 113 30.5 194t81 132t116 74.5t136.5 23.5q164 0 265.5 -88t101.5 -268q0 -25 -5 -58.5t-18.5 -69.5t-37 -70t-60.5 -58v-8q59 -23 98 -62t62.5 -91t33 -115.5t9.5 -133.5q0 -217 -88 -334.5t-260 -117.5q-14 0 -40 1t-50.5 6t-42 17t-15.5 37l8 96 q2 29 45 29q121 0 164 69.5t43 208.5q0 141 -45 201t-143 72q-37 2 -37 28v86q0 37 39 46q61 16 89 75.5t28 134.5q0 78 -40 123t-98 45q-143 0 -143 -196v-1024q0 -39 -49 -39h-131q-47 0 -47 37z" />
<glyph unicode="&#xe0;" horiz-adv-x="966" d="M57 274q0 182 89.5 262t267.5 80h207v46q0 88 -39 127.5t-138 39.5q-51 0 -121.5 -6t-136.5 -14q-35 -6 -41 29l-16 75q-4 16 1 29.5t26 24.5q29 14 70.5 25.5t86.5 18.5t89 10t77 3q119 0 191.5 -27.5t111.5 -78t51.5 -122t12.5 -157.5v-383q0 -59 7 -74.5t48 -17.5 q27 -4 35 -9t8 -22v-80q0 -16 -6 -28.5t-29 -18.5q-37 -14 -102 -14q-76 0 -115 23.5t-53 80.5q-2 0 -3 1t-3 1q-66 -51 -147 -82.5t-167 -31.5q-76 0 -126 21.5t-80.5 59t-43 91t-12.5 118.5zM273 1425.5q6 12.5 24 24.5l100 68q10 8 23.5 10t23.5 -15l166 -309 q6 -10 7 -20t-13 -21l-72 -49q-25 -16 -43 8l-208 275q-14 16 -8 28.5zM289 285q0 -66 21.5 -90.5t74.5 -24.5q27 0 58.5 8t63.5 22.5t60.5 30t50.5 31.5v191h-190q-59 0 -99 -35t-40 -133z" />
<glyph unicode="&#xe1;" horiz-adv-x="966" d="M57 274q0 182 89.5 262t267.5 80h207v46q0 88 -39 127.5t-138 39.5q-51 0 -121.5 -6t-136.5 -14q-35 -6 -41 29l-16 75q-4 16 1 29.5t26 24.5q29 14 70.5 25.5t86.5 18.5t89 10t77 3q119 0 191.5 -27.5t111.5 -78t51.5 -122t12.5 -157.5v-383q0 -59 7 -74.5t48 -17.5 q27 -4 35 -9t8 -22v-80q0 -16 -6 -28.5t-29 -18.5q-37 -14 -102 -14q-76 0 -115 23.5t-53 80.5q-2 0 -3 1t-3 1q-66 -51 -147 -82.5t-167 -31.5q-76 0 -126 21.5t-80.5 59t-43 91t-12.5 118.5zM289 285q0 -66 21.5 -90.5t74.5 -24.5q27 0 58.5 8t63.5 22.5t60.5 30 t50.5 31.5v191h-190q-59 0 -99 -35t-40 -133zM395 1198l150 315q14 27 47 9l117 -66q16 -10 17 -22.5t-9 -22.5q-12 -16 -40 -56t-57.5 -85t-57 -85t-40.5 -59q-12 -14 -23.5 -15t-27.5 9l-68 37q-23 10 -8 41z" />
<glyph unicode="&#xe2;" horiz-adv-x="966" d="M57 274q0 182 89.5 262t267.5 80h207v46q0 88 -39 127.5t-138 39.5q-51 0 -121.5 -6t-136.5 -14q-35 -6 -41 29l-16 75q-4 16 1 29.5t26 24.5q29 14 70.5 25.5t86.5 18.5t89 10t77 3q119 0 191.5 -27.5t111.5 -78t51.5 -122t12.5 -157.5v-383q0 -59 7 -74.5t48 -17.5 q27 -4 35 -9t8 -22v-80q0 -16 -6 -28.5t-29 -18.5q-37 -14 -102 -14q-76 0 -115 23.5t-53 80.5q-2 0 -3 1t-3 1q-66 -51 -147 -82.5t-167 -31.5q-76 0 -126 21.5t-80.5 59t-43 91t-12.5 118.5zM178 1178.5q2 11.5 12 25.5l195 260q10 12 22.5 16.5t34.5 4.5h101q35 0 47 -5 t22 -20l189 -260q20 -23 0 -43l-53 -49q-23 -23 -50 0l-204 207l-201 -205q-14 -16 -25.5 -14t-23.5 12l-54 47q-14 12 -12 23.5zM289 285q0 -66 21.5 -90.5t74.5 -24.5q27 0 58.5 8t63.5 22.5t60.5 30t50.5 31.5v191h-190q-59 0 -99 -35t-40 -133z" />
<glyph unicode="&#xe3;" horiz-adv-x="966" d="M57 274q0 182 89.5 262t267.5 80h207v46q0 88 -39 127.5t-138 39.5q-51 0 -121.5 -6t-136.5 -14q-35 -6 -41 29l-16 75q-4 16 1 29.5t26 24.5q29 14 70.5 25.5t86.5 18.5t89 10t77 3q119 0 191.5 -27.5t111.5 -78t51.5 -122t12.5 -157.5v-383q0 -59 7 -74.5t48 -17.5 q27 -4 35 -9t8 -22v-80q0 -16 -6 -28.5t-29 -18.5q-37 -14 -102 -14q-76 0 -115 23.5t-53 80.5q-2 0 -3 1t-3 1q-66 -51 -147 -82.5t-167 -31.5q-76 0 -126 21.5t-80.5 59t-43 91t-12.5 118.5zM136.5 1211.5q-1.5 11.5 2.5 21.5q41 109 98.5 148.5t110.5 39.5q37 0 76 -15 t74 -34q37 -18 69.5 -35.5t55.5 -17.5q27 0 43 16.5t39 50.5q10 16 18 23.5t29 -2.5l57 -29q18 -10 20 -21t-4 -28q-35 -100 -84.5 -141t-115.5 -41q-33 0 -72 16.5t-76 34.5q-39 18 -73.5 33.5t-57.5 15.5q-16 0 -38.5 -11t-51.5 -62q-10 -16 -17.5 -19.5t-29.5 6.5l-55 29 q-16 10 -17.5 21.5zM289 285q0 -66 21.5 -90.5t74.5 -24.5q27 0 58.5 8t63.5 22.5t60.5 30t50.5 31.5v191h-190q-59 0 -99 -35t-40 -133z" />
<glyph unicode="&#xe4;" horiz-adv-x="966" d="M57 274q0 182 89.5 262t267.5 80h207v46q0 88 -39 127.5t-138 39.5q-51 0 -121.5 -6t-136.5 -14q-35 -6 -41 29l-16 75q-4 16 1 29.5t26 24.5q29 14 70.5 25.5t86.5 18.5t89 10t77 3q119 0 191.5 -27.5t111.5 -78t51.5 -122t12.5 -157.5v-383q0 -59 7 -74.5t48 -17.5 q27 -4 35 -9t8 -22v-80q0 -16 -6 -28.5t-29 -18.5q-37 -14 -102 -14q-76 0 -115 23.5t-53 80.5q-2 0 -3 1t-3 1q-66 -51 -147 -82.5t-167 -31.5q-76 0 -126 21.5t-80.5 59t-43 91t-12.5 118.5zM195 1262q0 47 22.5 77.5t89.5 30.5q68 0 89.5 -29.5t21.5 -78.5t-20.5 -83 t-90.5 -34q-37 0 -59.5 9t-34.5 25.5t-15 37t-3 45.5zM289 285q0 -66 21.5 -90.5t74.5 -24.5q27 0 58.5 8t63.5 22.5t60.5 30t50.5 31.5v191h-190q-59 0 -99 -35t-40 -133zM549 1262q0 47 22.5 77.5t87.5 30.5q72 0 92.5 -29.5t20.5 -78.5t-20.5 -83t-92.5 -34 q-74 0 -92 34.5t-18 82.5z" />
<glyph unicode="&#xe5;" horiz-adv-x="966" d="M57 274q0 182 89.5 262t267.5 80h207v46q0 88 -39 127.5t-138 39.5q-51 0 -121.5 -6t-136.5 -14q-35 -6 -41 29l-16 75q-4 16 1 29.5t26 24.5q29 14 70.5 25.5t86.5 18.5t89 10t77 3q119 0 191.5 -27.5t111.5 -78t51.5 -122t12.5 -157.5v-383q0 -59 7 -74.5t48 -17.5 q27 -4 35 -9t8 -22v-80q0 -16 -6 -28.5t-29 -18.5q-37 -14 -102 -14q-76 0 -115 23.5t-53 80.5q-2 0 -3 1t-3 1q-66 -51 -147 -82.5t-167 -31.5q-76 0 -126 21.5t-80.5 59t-43 91t-12.5 118.5zM274 1300q0 45 17.5 84t47.5 67t70 43t85 15t84.5 -16t67.5 -45t44.5 -67 t16.5 -81t-16.5 -79.5t-44.5 -65.5t-67.5 -45t-84.5 -16t-85 15t-70 42t-47.5 64.5t-17.5 84.5zM289 285q0 -66 21.5 -90.5t74.5 -24.5q27 0 58.5 8t63.5 22.5t60.5 30t50.5 31.5v191h-190q-59 0 -99 -35t-40 -133zM408 1300q0 -43 22.5 -69.5t63.5 -26.5q39 0 63.5 28 t24.5 68q0 35 -24.5 66t-63.5 31q-37 0 -61.5 -31t-24.5 -66z" />
<glyph unicode="&#xe6;" horiz-adv-x="1456" d="M63 268q0 176 85 252t266 76h215v72q0 88 -37 123.5t-137 35.5q-51 0 -122 -6t-136 -14q-35 -6 -41 29l-17 75q-4 16 1 29.5t26 24.5q29 14 71 25t87 18.5t88.5 10.5t76.5 3q111 0 176.5 -30.5t100.5 -78.5q41 45 105.5 77t160.5 32q121 0 197 -41t118 -105.5t56 -147.5 t14 -165q0 -53 -21.5 -90t-78.5 -37h-457q2 -76 15.5 -125t38 -78.5t61.5 -41t86 -11.5q47 0 112.5 5t135.5 16q39 6 45 -35l12 -70q0 -18 -3 -31.5t-26 -25.5q-25 -16 -63.5 -26.5t-81.5 -17.5t-85 -10t-75 -3q-127 0 -204.5 38.5t-118.5 104.5q-78 -66 -177.5 -103.5 t-203.5 -37.5q-76 0 -127 20.5t-82 57t-43.5 89t-12.5 117.5zM293 301q0 -74 19.5 -102.5t80.5 -28.5q25 0 58.5 10t69.5 24.5t69 32t57 33.5q-10 41 -13 82t-5 82h-201q-59 0 -95 -28.5t-40 -104.5zM862 594h324q-2 49 -8.5 94t-23.5 78t-49 52.5t-81 19.5 q-86 0 -122 -57.5t-40 -186.5z" />
<glyph unicode="&#xe7;" horiz-adv-x="800" d="M63 504q0 94 13.5 187t55.5 167t118 120t203 46q33 0 71.5 -4t78.5 -11.5t78 -17.5t69 -24q29 -12 22 -49l-14 -84q-8 -35 -49 -31q-74 8 -130.5 13t-103.5 5q-98 0 -138 -71.5t-40 -239.5q0 -94 9 -156.5t29.5 -100.5t54.5 -54.5t83 -16.5q35 0 99.5 4t134.5 15 q23 4 38 0t19 -29l14 -76q4 -23 -1 -34t-23 -23q-45 -25 -121 -38t-148 -17l-24 -74q53 -4 87 -17.5t52 -34t25.5 -46t7.5 -54.5q0 -86 -56.5 -135t-166.5 -49q-29 0 -74 5t-76 20q-16 6 -12 24l10 53q4 10 9 14.5t24 0.5q25 -4 56.5 -7t51.5 -3q33 0 59.5 13t26.5 60 q0 39 -26.5 50.5t-87.5 15.5q-43 2 -31 49l37 119q-102 12 -163.5 58t-95.5 115.5t-44.5 158t-10.5 184.5z" />
<glyph unicode="&#xe8;" horiz-adv-x="899" d="M63 498q0 74 10.5 166t50.5 171.5t120 134t217 54.5q125 0 201.5 -41t118.5 -105.5t57.5 -147.5t15.5 -165q0 -59 -20.5 -92t-81.5 -33h-455q2 -76 15.5 -125t38 -78.5t61.5 -42t86 -12.5t110.5 5.5t118.5 13.5q23 4 40 1t21 -30l13 -72q8 -41 -31 -61 q-29 -12 -65.5 -23.5t-77.5 -18.5t-82 -11t-76 -4q-133 0 -213 43t-123 113.5t-56.5 163.5t-13.5 196zM225 1425.5q6 12.5 25 24.5l100 68q10 8 23.5 10t23.5 -15l166 -309q6 -10 7 -20t-13 -21l-72 -49q-25 -16 -43 8l-209 275q-14 16 -8 28.5zM297 596h324q-2 49 -8.5 94 t-24 78t-49 52.5t-80.5 19.5q-84 0 -121 -58.5t-41 -185.5z" />
<glyph unicode="&#xe9;" horiz-adv-x="899" d="M63 498q0 74 10.5 166t50.5 171.5t120 134t217 54.5q125 0 201.5 -41t118.5 -105.5t57.5 -147.5t15.5 -165q0 -59 -20.5 -92t-81.5 -33h-455q2 -76 15.5 -125t38 -78.5t61.5 -42t86 -12.5t110.5 5.5t118.5 13.5q23 4 40 1t21 -30l13 -72q8 -41 -31 -61 q-29 -12 -65.5 -23.5t-77.5 -18.5t-82 -11t-76 -4q-133 0 -213 43t-123 113.5t-56.5 163.5t-13.5 196zM297 596h324q-2 49 -8.5 94t-24 78t-49 52.5t-80.5 19.5q-84 0 -121 -58.5t-41 -185.5zM377 1198l149 315q14 27 47 9l117 -66q16 -10 17 -22.5t-9 -22.5 q-12 -16 -39.5 -56t-57.5 -85t-57.5 -85t-39.5 -59q-12 -14 -23.5 -15t-27.5 9l-68 37q-23 10 -8 41z" />
<glyph unicode="&#xea;" horiz-adv-x="899" d="M63 498q0 74 10.5 166t50.5 171.5t120 134t217 54.5q125 0 201.5 -41t118.5 -105.5t57.5 -147.5t15.5 -165q0 -59 -20.5 -92t-81.5 -33h-455q2 -76 15.5 -125t38 -78.5t61.5 -42t86 -12.5t110.5 5.5t118.5 13.5q23 4 40 1t21 -30l13 -72q8 -41 -31 -61 q-29 -12 -65.5 -23.5t-77.5 -18.5t-82 -11t-76 -4q-133 0 -213 43t-123 113.5t-56.5 163.5t-13.5 196zM150 1178.5q2 11.5 12 25.5l194 260q10 12 22.5 16.5t35.5 4.5h100q35 0 47 -5t23 -20l188 -260q20 -23 0 -43l-53 -49q-23 -23 -49 0l-205 207l-201 -205 q-14 -16 -25.5 -14t-23.5 12l-53 47q-14 12 -12 23.5zM297 596h324q-2 49 -8.5 94t-24 78t-49 52.5t-80.5 19.5q-84 0 -121 -58.5t-41 -185.5z" />
<glyph unicode="&#xeb;" horiz-adv-x="899" d="M63 498q0 74 10.5 166t50.5 171.5t120 134t217 54.5q125 0 201.5 -41t118.5 -105.5t57.5 -147.5t15.5 -165q0 -59 -20.5 -92t-81.5 -33h-455q2 -76 15.5 -125t38 -78.5t61.5 -42t86 -12.5t110.5 5.5t118.5 13.5q23 4 40 1t21 -30l13 -72q8 -41 -31 -61 q-29 -12 -65.5 -23.5t-77.5 -18.5t-82 -11t-76 -4q-133 0 -213 43t-123 113.5t-56.5 163.5t-13.5 196zM176 1262q0 47 22.5 77.5t90.5 30.5t89 -29.5t21 -78.5t-20 -83t-90 -34q-37 0 -59.5 9t-35 25.5t-15.5 37t-3 45.5zM297 596h324q-2 49 -8.5 94t-24 78t-49 52.5 t-80.5 19.5q-84 0 -121 -58.5t-41 -185.5zM530 1262q0 47 22.5 77.5t88.5 30.5q72 0 92.5 -29.5t20.5 -78.5t-20.5 -83t-92.5 -34q-74 0 -92.5 34.5t-18.5 82.5z" />
<glyph unicode="&#xec;" horiz-adv-x="497" d="M-4 1425.5q6 12.5 24 24.5l101 68q10 8 23.5 10t23.5 -15l166 -309q6 -10 7 -20t-13 -21l-72 -49q-25 -16 -43 8l-209 275q-14 16 -8 28.5zM135 39v926q0 39 41 39h150q23 0 29.5 -11.5t6.5 -27.5v-926q0 -16 -7 -27.5t-29 -11.5h-150q-41 0 -41 39z" />
<glyph unicode="&#xed;" horiz-adv-x="497" d="M135 39v926q0 39 41 39h150q23 0 29.5 -11.5t6.5 -27.5v-926q0 -16 -7 -27.5t-29 -11.5h-150q-41 0 -41 39zM156 1198l149 315q14 27 47 9l117 -66q16 -10 17 -22.5t-9 -22.5q-12 -16 -39.5 -56t-57.5 -85t-57.5 -85t-39.5 -59q-12 -14 -23.5 -15t-28.5 9l-67 37 q-23 10 -8 41z" />
<glyph unicode="&#xee;" horiz-adv-x="497" d="M-59 1178.5q2 11.5 12 25.5l194 260q10 12 22.5 16.5t35.5 4.5h100q35 0 47.5 -5t22.5 -20l188 -260q20 -23 0 -43l-53 -49q-23 -23 -49 0l-205 207l-201 -205q-14 -16 -25.5 -14t-23.5 12l-53 47q-14 12 -12 23.5zM135 39v926q0 39 41 39h150q23 0 29.5 -11.5t6.5 -27.5 v-926q0 -16 -7 -27.5t-29 -11.5h-150q-41 0 -41 39z" />
<glyph unicode="&#xef;" horiz-adv-x="497" d="M-33 1262q0 47 22.5 77.5t90.5 30.5t89 -29.5t21 -78.5t-20 -83t-90 -34q-37 0 -59.5 9t-35 25.5t-15.5 37t-3 45.5zM135 39v926q0 39 41 39h150q23 0 29.5 -11.5t6.5 -27.5v-926q0 -16 -7 -27.5t-29 -11.5h-150q-41 0 -41 39zM322 1262q0 47 22.5 77.5t87.5 30.5 q72 0 92.5 -29.5t20.5 -78.5t-20.5 -83t-92.5 -34q-74 0 -92 34.5t-18 82.5z" />
<glyph unicode="&#xf0;" horiz-adv-x="937" d="M63 485q0 82 13.5 173.5t54.5 167t116 125.5t197 50q33 0 73 -7t79 -25l10 6q-18 51 -42.5 102t-55.5 90q-10 -4 -31.5 -14t-46 -20.5t-46.5 -20.5t-34 -14q-14 -6 -25.5 -6t-17.5 16l-22 49q-6 16 2 24.5t20 12.5l121 55q-29 29 -63.5 53.5t-75.5 49.5q-29 18 -40 32.5 t-1 32.5l31 58q10 25 24 30.5t47 -6.5q66 -29 129.5 -67.5t116.5 -92.5l129 62q18 10 27.5 7t19.5 -26l21 -45q6 -25 -17 -34l-104 -50q102 -129 151 -298t49 -373q0 -111 -12 -218.5t-54 -191.5t-124 -136t-223 -52q-131 0 -209 50t-120 124.5t-54.5 163t-12.5 163.5z M293 483q0 -59 6 -114.5t24.5 -98.5t53.5 -68.5t90 -25.5q61 0 97 32t54.5 81t23.5 110.5t5 120.5t-3 127t-13 115q-35 23 -77 36t-97 13q-53 0 -86 -25.5t-50.5 -69.5t-22.5 -104.5t-5 -128.5z" />
<glyph unicode="&#xf1;" horiz-adv-x="937" d="M74 39v926q0 20 8 29.5t33 9.5h143q41 0 41 -39v-43l10 -4q53 41 128 72.5t147 31.5q98 0 153.5 -32t84 -85t35.5 -123.5t7 -148.5v-594q0 -16 -8 -27.5t-35 -11.5h-143q-43 0 -43 39v67.5v105.5t1 123.5t1 124v104.5v67q0 109 -28.5 145.5t-86.5 36.5 q-49 0 -112.5 -24.5t-110.5 -49.5v-700q0 -16 -8 -27.5t-35 -11.5h-141q-25 0 -33 9t-8 30zM99.5 1211.5q-1.5 11.5 2.5 21.5q41 109 98.5 148.5t110.5 39.5q37 0 76 -15t74 -34q37 -18 69.5 -35.5t55.5 -17.5q27 0 43 16.5t39 50.5q10 16 18 23.5t29 -2.5l57 -29 q18 -10 20.5 -21t-4.5 -28q-35 -100 -84.5 -141t-115.5 -41q-33 0 -72 16.5t-76 34.5q-39 18 -73.5 33.5t-57.5 15.5q-16 0 -38.5 -11t-51.5 -62q-10 -16 -17 -19.5t-30 6.5l-55 29q-16 10 -17.5 21.5z" />
<glyph unicode="&#xf2;" horiz-adv-x="935" d="M63 518q0 68 11.5 155t51.5 164.5t119 132t216 54.5t218 -46t123 -118t54 -163t12 -179q0 -90 -10 -184t-51 -172t-122 -128t-224 -50q-139 0 -218 50t-119 128t-50.5 172t-10.5 184zM221 1425.5q6 12.5 25 24.5l100 68q10 8 23.5 10t23.5 -15l166 -309q6 -10 7 -20 t-13 -21l-72 -49q-25 -16 -43 8l-209 275q-14 16 -8 28.5zM293 504q0 -162 32.5 -243t135.5 -81q111 0 144.5 81t33.5 243q0 160 -33 241.5t-143 81.5q-104 0 -137 -82.5t-33 -240.5z" />
<glyph unicode="&#xf3;" horiz-adv-x="935" d="M63 518q0 68 11.5 155t51.5 164.5t119 132t216 54.5t218 -46t123 -118t54 -163t12 -179q0 -90 -10 -184t-51 -172t-122 -128t-224 -50q-139 0 -218 50t-119 128t-50.5 172t-10.5 184zM293 504q0 -162 32.5 -243t135.5 -81q111 0 144.5 81t33.5 243q0 160 -33 241.5 t-143 81.5q-104 0 -137 -82.5t-33 -240.5zM385 1198l150 315q14 27 47 9l116 -66q16 -10 17.5 -22.5t-8.5 -22.5q-12 -16 -40 -56t-57.5 -85t-57.5 -85t-40 -59q-12 -14 -23.5 -15t-27.5 9l-68 37q-23 10 -8 41z" />
<glyph unicode="&#xf4;" horiz-adv-x="935" d="M63 518q0 68 11.5 155t51.5 164.5t119 132t216 54.5t218 -46t123 -118t54 -163t12 -179q0 -90 -10 -184t-51 -172t-122 -128t-224 -50q-139 0 -218 50t-119 128t-50.5 172t-10.5 184zM154 1178.5q2 11.5 12 25.5l194 260q10 12 22.5 16.5t35.5 4.5h100q35 0 47.5 -5 t22.5 -20l188 -260q20 -23 0 -43l-53 -49q-23 -23 -49 0l-205 207l-201 -205q-14 -16 -25.5 -14t-23.5 12l-53 47q-14 12 -12 23.5zM293 504q0 -162 32.5 -243t135.5 -81q111 0 144.5 81t33.5 243q0 160 -33 241.5t-143 81.5q-104 0 -137 -82.5t-33 -240.5z" />
<glyph unicode="&#xf5;" horiz-adv-x="935" d="M63 518q0 68 11.5 155t51.5 164.5t119 132t216 54.5t218 -46t123 -118t54 -163t12 -179q0 -90 -10 -184t-51 -172t-122 -128t-224 -50q-139 0 -218 50t-119 128t-50.5 172t-10.5 184zM124 1209.5q-1 11.5 3 21.5q41 109 98.5 148.5t110.5 39.5q37 0 76 -15t73 -34 q37 -18 70 -35.5t55 -17.5q27 0 43.5 16.5t38.5 50.5q10 16 18.5 23.5t28.5 -2.5l58 -29q18 -10 20 -21.5t-4 -27.5q-35 -100 -85 -141t-116 -41q-33 0 -71.5 16.5t-75.5 34.5q-39 18 -74 33.5t-57 15.5q-16 0 -39 -11t-51 -63q-10 -16 -17.5 -19t-29.5 7l-56 29 q-16 10 -17 21.5zM293 504q0 -162 32.5 -243t135.5 -81q111 0 144.5 81t33.5 243q0 160 -33 241.5t-143 81.5q-104 0 -137 -82.5t-33 -240.5z" />
<glyph unicode="&#xf6;" horiz-adv-x="935" d="M63 518q0 68 11.5 155t51.5 164.5t119 132t216 54.5t218 -46t123 -118t54 -163t12 -179q0 -90 -10 -184t-51 -172t-122 -128t-224 -50q-139 0 -218 50t-119 128t-50.5 172t-10.5 184zM180 1262q0 47 22.5 77.5t90.5 30.5t89 -29.5t21 -78.5t-20 -83t-90 -34 q-37 0 -59.5 9t-35 25.5t-15.5 37t-3 45.5zM293 504q0 -162 32.5 -243t135.5 -81q111 0 144.5 81t33.5 243q0 160 -33 241.5t-143 81.5q-104 0 -137 -82.5t-33 -240.5zM535 1262q0 47 22.5 77.5t87.5 30.5q72 0 92.5 -29.5t20.5 -78.5t-20.5 -83t-92.5 -34q-74 0 -92 34.5 t-18 82.5z" />
<glyph unicode="&#xf7;" horiz-adv-x="1024" d="M129 612v107q0 33 39 33h676q39 0 39 -33v-107q0 -33 -39 -32h-676q-39 0 -39 32zM387 340q0 53 23.5 87t97.5 34t96.5 -33t22.5 -88q0 -51 -21.5 -88t-97.5 -37q-41 0 -64.5 10.5t-36 27.5t-16.5 39.5t-4 47.5zM387 991q0 51 23.5 84t97.5 33t96.5 -32t22.5 -85 t-21.5 -89t-97.5 -36q-41 0 -64.5 10.5t-36 27t-16.5 40t-4 47.5z" />
<glyph unicode="&#xf8;" horiz-adv-x="935" d="M63 518q0 68 11.5 155t51.5 164.5t119 132t216 54.5q82 0 142.5 -17.5t105.5 -48.5l34 56q8 12 15.5 17t23.5 -3l37 -22q16 -10 15.5 -17.5t-11.5 -21.5l-45 -74q57 -76 73.5 -175.5t16.5 -199.5q0 -90 -10 -184t-51 -172t-122 -128t-224 -50q-68 0 -121 12t-94 35 l-27 -45q-10 -14 -18 -18.5t-25 7.5l-37 21q-14 10 -14 16t10 21l35 57q-37 39 -57.5 90t-31.5 107.5t-14.5 116t-3.5 114.5zM293 504q0 -121 14 -193l285 459q-41 57 -129 57q-104 0 -137 -82.5t-33 -240.5zM358 213q35 -33 103 -33q111 0 144.5 81t33.5 243q0 43 -2 80 t-6 69z" />
<glyph unicode="&#xf9;" horiz-adv-x="933" d="M78 307v658q0 16 8 27.5t35 11.5h141q25 0 34 -9.5t9 -29.5v-115t-1 -179.5t-1 -178v-113.5q0 -59 7 -96t21.5 -57.5t35 -26.5t49.5 -6q47 0 103 23.5t110 51.5v697q0 18 9 28.5t36 10.5h139q25 0 33 -9.5t8 -29.5v-926q0 -20 -8 -29.5t-33 -9.5h-143q-27 0 -34 10t-7 29 v47q-2 0 -5 2t-6 2q-53 -45 -127.5 -76.5t-146.5 -31.5q-92 0 -144.5 26.5t-79 70.5t-34.5 103.5t-8 124.5zM225 1425.5q6 12.5 25 24.5l100 68q10 8 23.5 10t23.5 -15l166 -309q6 -10 7 -20t-13 -21l-72 -49q-25 -16 -43 8l-209 275q-14 16 -8 28.5z" />
<glyph unicode="&#xfa;" horiz-adv-x="933" d="M78 307v658q0 16 8 27.5t35 11.5h141q25 0 34 -9.5t9 -29.5v-115t-1 -179.5t-1 -178v-113.5q0 -59 7 -96t21.5 -57.5t35 -26.5t49.5 -6q47 0 103 23.5t110 51.5v697q0 18 9 28.5t36 10.5h139q25 0 33 -9.5t8 -29.5v-926q0 -20 -8 -29.5t-33 -9.5h-143q-27 0 -34 10t-7 29 v47q-2 0 -5 2t-6 2q-53 -45 -127.5 -76.5t-146.5 -31.5q-92 0 -144.5 26.5t-79 70.5t-34.5 103.5t-8 124.5zM383 1198l149 315q14 27 48 9l116 -66q16 -10 17.5 -22.5t-8.5 -22.5q-12 -16 -40 -56t-57.5 -85t-57.5 -85t-40 -59q-12 -14 -23.5 -15t-27.5 9l-68 37 q-23 10 -8 41z" />
<glyph unicode="&#xfb;" horiz-adv-x="933" d="M78 307v658q0 16 8 27.5t35 11.5h141q25 0 34 -9.5t9 -29.5v-115t-1 -179.5t-1 -178v-113.5q0 -59 7 -96t21.5 -57.5t35 -26.5t49.5 -6q47 0 103 23.5t110 51.5v697q0 18 9 28.5t36 10.5h139q25 0 33 -9.5t8 -29.5v-926q0 -20 -8 -29.5t-33 -9.5h-143q-27 0 -34 10t-7 29 v47q-2 0 -5 2t-6 2q-53 -45 -127.5 -76.5t-146.5 -31.5q-92 0 -144.5 26.5t-79 70.5t-34.5 103.5t-8 124.5zM160 1178.5q2 11.5 12 25.5l195 260q10 12 22 16.5t35 4.5h100q35 0 47.5 -5t22.5 -20l188 -260q20 -23 0 -43l-53 -49q-23 -23 -49 0l-205 207l-201 -205 q-14 -16 -25 -14t-24 12l-53 47q-14 12 -12 23.5z" />
<glyph unicode="&#xfc;" horiz-adv-x="933" d="M78 307v658q0 16 8 27.5t35 11.5h141q25 0 34 -9.5t9 -29.5v-115t-1 -179.5t-1 -178v-113.5q0 -59 7 -96t21.5 -57.5t35 -26.5t49.5 -6q47 0 103 23.5t110 51.5v697q0 18 9 28.5t36 10.5h139q25 0 33 -9.5t8 -29.5v-926q0 -20 -8 -29.5t-33 -9.5h-143q-27 0 -34 10t-7 29 v47q-2 0 -5 2t-6 2q-53 -45 -127.5 -76.5t-146.5 -31.5q-92 0 -144.5 26.5t-79 70.5t-34.5 103.5t-8 124.5zM197 1262q0 47 22.5 77.5t89.5 30.5q68 0 89.5 -29.5t21.5 -78.5t-20.5 -83t-90.5 -34q-37 0 -59.5 9t-34.5 25.5t-15 37t-3 45.5zM551 1262q0 47 22.5 77.5 t88.5 30.5q72 0 92 -29.5t20 -78.5t-20 -83t-92 -34q-74 0 -92.5 34.5t-18.5 82.5z" />
<glyph unicode="&#xfd;" horiz-adv-x="886" d="M29 963q-14 41 28 41h154q23 0 32 -7.5t15 -27.5l119 -410q16 -61 33.5 -122.5t29.5 -133.5h11l77 283l109 385q6 16 15.5 24.5t33.5 8.5h150q25 0 28.5 -11.5t-2.5 -29.5l-416 -1305q-8 -20 -18 -28.5t-39 -8.5h-133q-43 0 -31 41l115 350zM360 1198l150 315q14 27 47 9 l117 -66q16 -10 17 -22.5t-9 -22.5q-12 -16 -40 -56t-57.5 -85t-57 -85t-40.5 -59q-12 -14 -23 -15t-28 9l-67 37q-23 10 -9 41z" />
<glyph unicode="&#xfe;" horiz-adv-x="933" d="M82 -338v1743q0 18 8 28.5t33 10.5h143q27 0 34 -11.5t7 -27.5v-483l6 -4q25 18 55.5 36.5t66.5 32.5t72 23.5t68 9.5q92 0 151.5 -37t94.5 -103.5t48.5 -160.5t13.5 -211q0 -125 -16.5 -223.5t-57.5 -166t-111.5 -103t-181.5 -35.5q-41 0 -95 8t-108 26l-6 -4v-348 q0 -16 -6 -28.5t-35 -12.5h-143q-29 0 -35 10.5t-6 30.5zM307 207q53 -16 100.5 -22.5t81.5 -6.5q43 0 75 16.5t51.5 54.5t28.5 101.5t9 159.5q0 94 -9 152.5t-25.5 91t-41 43t-55.5 10.5q-25 0 -54.5 -7t-60 -17.5t-57 -22.5t-43.5 -25v-528z" />
<glyph unicode="&#xff;" horiz-adv-x="886" d="M29 963q-14 41 28 41h154q23 0 32 -7.5t15 -27.5l119 -410q16 -61 33.5 -122.5t29.5 -133.5h11l77 283l109 385q6 16 15.5 24.5t33.5 8.5h150q25 0 28.5 -11.5t-2.5 -29.5l-416 -1305q-8 -20 -18 -28.5t-39 -8.5h-133q-43 0 -31 41l115 350zM166 1262q0 47 22.5 77.5 t90.5 30.5t89 -29.5t21 -78.5t-20 -83t-90 -34q-37 0 -59.5 9t-35 25.5t-15.5 37t-3 45.5zM520 1262q0 47 22.5 77.5t88.5 30.5q72 0 92 -29.5t20 -78.5t-20 -83t-92 -34q-74 0 -92.5 34.5t-18.5 82.5z" />
<glyph unicode="&#x152;" horiz-adv-x="1429" d="M66 698q0 61 5 135t22.5 150t50 145.5t87 125t135 88t193.5 32.5q37 0 78 -5t70 -11h624q41 0 41 -39v-129q0 -18 -8 -27.5t-35 -9.5q-119 0 -237.5 1t-237.5 1v-350h424q39 0 39 -35v-129q0 -18 -6 -28.5t-33 -10.5h-424v-399h500q41 0 41 -39v-127q0 -20 -7.5 -28.5 t-35.5 -8.5h-643q-68 -18 -150 -18q-176 0 -274.5 67.5t-147.5 172t-60 231.5t-11 245zM309 676q0 -133 13.5 -228.5t49.5 -157t96 -88t153 -20.5v977q-10 0 -19.5 1t-19.5 1q-82 0 -134.5 -31.5t-83 -94t-43 -152.5t-12.5 -207z" />
<glyph unicode="&#x153;" horiz-adv-x="1476" d="M63 516q0 68 11.5 155t51.5 165.5t119 132t216 53.5q100 0 167.5 -34t114.5 -91q45 57 117 92t182 35q125 0 202 -41t119 -105.5t57.5 -147.5t15.5 -165q0 -59 -20.5 -92t-82.5 -33h-454q2 -76 15 -125t37.5 -78.5t61.5 -42t86 -12.5t110.5 5.5t119.5 13.5q23 4 40 1 t21 -30l12 -72q8 -41 -30 -61q-29 -12 -66 -23.5t-78 -18.5t-81.5 -11t-75.5 -4q-115 0 -190 31.5t-120 86.5q-55 -59 -121.5 -87.5t-158.5 -28.5q-139 0 -219 49t-120 127t-49.5 172t-9.5 184zM293 504q0 -162 31.5 -244t136.5 -82q106 0 141 80t37 244q0 82 -8 143.5 t-27.5 101t-54.5 59t-88 19.5q-104 0 -136 -83t-32 -238zM879 596h323q-2 49 -8 94t-23.5 78t-49.5 52.5t-81 19.5q-84 0 -120.5 -58.5t-40.5 -185.5z" />
<glyph unicode="&#x178;" horiz-adv-x="1013" d="M18 1319q-8 16 0.5 26.5t22.5 10.5h166q39 0 51 -14.5t35 -65.5l113 -268q29 -66 49 -124.5t43 -113.5h12q18 61 45 123.5t53 122.5l135 301q10 23 21.5 31t42.5 8h160q41 0 26 -37l-375 -764v-518q0 -16 -7 -26.5t-33 -10.5h-148q-27 0 -36 8t-9 29v518zM219 1606 q0 47 21.5 77.5t89.5 30.5q72 0 91 -28.5t19 -79.5q0 -49 -20 -83t-90 -34q-74 0 -92.5 35t-18.5 82zM567 1606q0 47 21.5 77.5t87.5 30.5q70 0 90 -28.5t20 -79.5q0 -49 -19 -83t-91 -34q-37 0 -58.5 9t-33 25.5t-14.5 37t-3 45.5z" />
<glyph unicode="&#x2c6;" horiz-adv-x="929" d="M141.5 1178.5q1.5 11.5 12.5 25.5l194 260q10 12 22.5 16.5t35.5 4.5h100q35 0 47 -5t22 -20l189 -260q20 -23 0 -43l-53 -49q-23 -23 -49 0l-205 207l-201 -205q-14 -16 -25.5 -14t-23.5 12l-53 47q-14 12 -12.5 23.5z" />
<glyph unicode="&#x2dc;" horiz-adv-x="931" d="M120 1205.5q-1 11.5 3 21.5q41 109 98.5 148.5t110.5 39.5q37 0 75.5 -15.5t73.5 -33.5q37 -18 70 -35.5t55 -17.5q27 0 43.5 16.5t38.5 50.5q10 16 18.5 23.5t28.5 -2.5l58 -29q18 -10 20 -21.5t-4 -27.5q-35 -100 -85 -141t-116 -41q-33 0 -71.5 16.5t-75.5 34.5 q-39 18 -74 33.5t-57 15.5q-16 0 -39 -11t-51 -63q-10 -16 -17.5 -19t-29.5 7l-56 29q-16 10 -17 21.5z" />
<glyph unicode="&#x2000;" horiz-adv-x="912" />
<glyph unicode="&#x2001;" horiz-adv-x="1825" />
<glyph unicode="&#x2002;" horiz-adv-x="912" />
<glyph unicode="&#x2003;" horiz-adv-x="1825" />
<glyph unicode="&#x2004;" horiz-adv-x="608" />
<glyph unicode="&#x2005;" horiz-adv-x="456" />
<glyph unicode="&#x2006;" horiz-adv-x="304" />
<glyph unicode="&#x2007;" horiz-adv-x="304" />
<glyph unicode="&#x2008;" horiz-adv-x="228" />
<glyph unicode="&#x2009;" horiz-adv-x="365" />
<glyph unicode="&#x200a;" horiz-adv-x="101" />
<glyph unicode="&#x2010;" horiz-adv-x="692" d="M45 604v107q0 35 35 34h534q35 0 35 -34v-107q0 -33 -35 -33h-534q-35 0 -35 33z" />
<glyph unicode="&#x2011;" horiz-adv-x="692" d="M45 604v107q0 35 35 34h534q35 0 35 -34v-107q0 -33 -35 -33h-534q-35 0 -35 33z" />
<glyph unicode="&#x2012;" horiz-adv-x="692" d="M45 604v107q0 35 35 34h534q35 0 35 -34v-107q0 -33 -35 -33h-534q-35 0 -35 33z" />
<glyph unicode="&#x2013;" horiz-adv-x="946" d="M49 473v90q0 35 41 35h780q23 0 31 -9t8 -26v-90q0 -16 -8 -25.5t-31 -9.5h-782q-23 0 -31 9.5t-8 25.5z" />
<glyph unicode="&#x2014;" horiz-adv-x="1482" d="M53 473v90q0 35 41 35h1313q23 0 31 -9t8 -26v-90q0 -16 -8 -25.5t-31 -9.5h-1315q-39 0 -39 35z" />
<glyph unicode="&#x2018;" horiz-adv-x="436" d="M84 1069q0 123 53 214t121 136q12 10 27.5 12.5t29.5 -14.5l37 -39q16 -16 9 -27.5t-19 -27.5q-29 -39 -42 -78t-13 -67q0 -39 13 -74t32 -62q10 -20 11 -32.5t-19 -28.5l-97 -84q-20 -16 -37.5 -18t-37.5 16q-35 33 -51.5 85t-16.5 89z" />
<glyph unicode="&#x2019;" horiz-adv-x="436" d="M78 964.5q6 12.5 20 28.5q35 37 45.5 76t10.5 70q0 39 -13.5 73.5t-31.5 59.5q-10 20 -11.5 33.5t19.5 29.5l96 84q20 16 37.5 18.5t38.5 -18.5q35 -31 51 -83t16 -89q0 -123 -53 -214t-121 -136q-12 -10 -27.5 -12t-29.5 12l-37 39q-16 16 -10 28.5z" />
<glyph unicode="&#x201a;" horiz-adv-x="382" d="M43 -232.5q4 11.5 18 29.5q55 68 56 144q0 39 -14.5 73.5t-30.5 59.5q-10 18 -11.5 32.5t21.5 32.5l84 78q47 39 84 2q35 -33 51 -84t16 -88q0 -59 -14 -112.5t-38.5 -98.5t-55.5 -80t-62 -57q-14 -10 -30.5 -13t-26.5 11l-39 43q-12 16 -8 27.5z" />
<glyph unicode="&#x201c;" horiz-adv-x="690" d="M70 1069q0 123 53 214t121 136q12 10 27.5 12.5t29.5 -14.5l37 -39q16 -16 10 -27.5t-20 -27.5q-31 -35 -43.5 -76t-12.5 -69q0 -39 13.5 -74t31.5 -62q10 -20 11.5 -32.5t-19.5 -28.5l-94 -84q-41 -35 -78 -2q-35 33 -51 85t-16 89zM356 1069q0 123 53.5 214t120.5 136 q12 10 27.5 12.5t30.5 -14.5l37 -39q14 -16 9 -27.5t-20 -27.5q-33 -39 -45 -78t-12 -67q0 -39 14.5 -74t30.5 -62q12 -20 13 -32.5t-21 -28.5l-94 -84q-20 -16 -38 -18t-38 16q-35 33 -51.5 85t-16.5 89z" />
<glyph unicode="&#x201d;" horiz-adv-x="692" d="M72 966.5q6 12.5 20 28.5q31 35 43 75t12 71q0 37 -13 72.5t-32 60.5q-10 20 -11 32.5t20 30.5l94 82q41 39 78 2q35 -31 51 -83t16 -89q0 -123 -53 -214t-123 -138q-10 -8 -25.5 -10t-29.5 12l-37 39q-16 16 -10 28.5zM359 966.5q6 12.5 20 28.5q29 37 42 76t13 70 q0 37 -13 72.5t-32 60.5q-12 20 -12 32.5t20 30.5l95 82q41 39 77 2q33 -31 49.5 -83t16.5 -89q0 -123 -53.5 -214t-120.5 -138q-10 -8 -26.5 -10t-28.5 12l-39 39q-14 16 -8 28.5z" />
<glyph unicode="&#x201e;" horiz-adv-x="659" d="M43 -232.5q4 11.5 18 29.5q55 68 56 144q0 39 -14.5 73.5t-30.5 59.5q-10 18 -11.5 32.5t21.5 32.5l84 78q47 39 84 2q35 -33 51 -84t16 -88q0 -59 -14 -112.5t-38.5 -98.5t-55.5 -80t-62 -57q-14 -10 -30.5 -13t-26.5 11l-39 43q-12 16 -8 27.5zM333 -232.5 q5 11.5 19 29.5q29 35 41.5 72t12.5 72q0 39 -13.5 73.5t-30.5 59.5q-10 18 -11 32.5t20 32.5l86 78q43 39 84 2q33 -33 50 -84t17 -88q0 -59 -14 -112.5t-39 -98.5t-55.5 -80t-63.5 -57q-12 -10 -28.5 -13t-28.5 11l-37 43q-14 16 -9 27.5z" />
<glyph unicode="&#x2022;" horiz-adv-x="618" d="M100 547q0 43 16.5 83t45 68.5t67.5 46t82 17.5t81 -17.5t66.5 -46t45 -68.5t16.5 -83q0 -45 -16.5 -83t-45 -66.5t-66.5 -45t-81 -16.5t-82 16.5t-67.5 45t-45 66.5t-16.5 83z" />
<glyph unicode="&#x2026;" horiz-adv-x="1216" d="M59 106q0 53 23.5 88t97.5 35t97.5 -35t23.5 -88q0 -49 -22.5 -86.5t-98.5 -37.5q-41 0 -64.5 10t-35.5 27.5t-16.5 40t-4.5 46.5zM492 106q0 53 23.5 88t98.5 35q72 0 94.5 -35t22.5 -88q0 -49 -21.5 -86.5t-95.5 -37.5q-41 0 -65.5 10t-36.5 27.5t-16 40t-4 46.5z M918 106q0 53 24.5 88t97.5 35q74 0 97.5 -35t23.5 -88q0 -49 -22.5 -86.5t-98.5 -37.5q-41 0 -65.5 10t-36.5 27.5t-16 40t-4 46.5z" />
<glyph unicode="&#x202f;" horiz-adv-x="365" />
<glyph unicode="&#x2039;" horiz-adv-x="532" d="M52.5 389q-3.5 17 13.5 37l178 256q16 23 29.5 32t48.5 9h133q18 0 22 -11.5t-6 -27.5l-207 -293l215 -301q8 -10 4 -19.5t-18 -9.5h-148q-33 0 -45 10.5t-22 20.5l-184 266q-10 14 -13.5 31z" />
<glyph unicode="&#x203a;" horiz-adv-x="532" d="M55.5 70.5q-4.5 9.5 3.5 19.5l213 301l-204 293q-12 16 -7 27.5t21 11.5h135q35 0 48.5 -9t29.5 -32l176 -256q16 -20 14 -36.5t-12 -31.5l-186 -266q-8 -10 -21.5 -20.5t-46.5 -10.5h-147q-12 0 -16.5 9.5z" />
<glyph unicode="&#x205f;" horiz-adv-x="456" />
<glyph unicode="&#x20ac;" d="M35 549l14 72q2 14 8 19t29 5h66v92h-89q-16 0 -24 5.5t-4 21.5l14 72q4 16 11.5 21t27.5 5h74q12 104 40.5 196.5t84 162t142.5 110.5t214 41q33 0 75 -3t86 -10t86 -17.5t77 -24.5q25 -12 32 -26.5t2 -41.5l-16 -80q-4 -18 -14 -26t-37 -4q-74 10 -151.5 15t-123.5 5 q-66 0 -110.5 -22.5t-73.5 -62.5t-45 -94t-24 -118h440q23 0 30 -6t3 -22l-15 -70q-4 -14 -9 -20.5t-28 -6.5h-434v-92h422q23 0 29 -6t2 -25l-12 -69q-2 -14 -8.5 -20.5t-26.5 -6.5h-400q6 -70 22.5 -128t46.5 -101t77 -66.5t114 -23.5q76 0 142.5 6t146.5 20q35 4 45.5 -5 t10.5 -32l6 -88q0 -25 -8.5 -40t-30.5 -25q-31 -14 -75 -23.5t-92 -15.5t-94 -9t-79 -3q-131 0 -218 43t-140.5 115.5t-80 170t-34.5 205.5h-97q-16 0 -23 6t-3 25z" />
<glyph unicode="&#x2122;" horiz-adv-x="1257" d="M41 1255v74q0 27 33 27h420q33 0 32 -27v-74q0 -31 -34 -30h-132v-477q0 -29 -34 -29h-82q-35 0 -35 29v477h-135q-33 0 -33 30zM551 748v585q0 25 29 25h92q16 0 25.5 -8.5t15.5 -18.5l147 -327h2l148 327q4 14 12 20.5t29 6.5h90q27 0 26 -25v-585q0 -29 -24 -29h-99 q-10 0 -18 5t-8 24q0 82 1 162.5t1 162.5h-6l-99 -225q-14 -29 -34 -29h-43q-27 0 -37 25l-96 223h-5q0 -80 1 -160t1 -159q0 -31 -28 -31h-92q-16 0 -23.5 6t-7.5 25z" />
<glyph unicode="&#x25fc;" horiz-adv-x="1003" d="M0 0v1004h1004v-1004h-1004z" />
</font>
</defs>
</svg>
